<?xml version="1.0" standalone="no"?>
<!DOCTYPE svg PUBLIC "-//W3C//DTD SVG 1.1//EN" "http://www.w3.org/Graphics/SVG/1.1/DTD/svg11.dtd" >
<svg xmlns="http://www.w3.org/2000/svg">
<metadata>Generated by IcoMoon</metadata>
<defs>
<font id="icon-font" horiz-adv-x="1024">
<font-face units-per-em="1024" ascent="960" descent="-64" />
<missing-glyph horiz-adv-x="1024" />
<glyph unicode="&#x20;" horiz-adv-x="512" d="" />
<glyph unicode="&#xe900;" glyph-name="lift-small" d="M804.57 594.286c0 20.199-16.375 36.571-36.571 36.571s-36.571-16.373-36.571-36.571h73.143zM767.999 155.43l-25.86-25.86c14.281-14.283 37.438-14.283 51.719 0l-25.86 25.86zM1013.287 348.998c14.283 14.281 14.283 37.438 0 51.719s-37.438 14.283-51.719 0l51.719-51.719zM574.432 400.719c-14.281 14.283-37.438 14.283-51.719 0s-14.281-37.438 0-51.719l51.719 51.719zM731.428 594.286v-438.856h73.143v438.856h-73.143zM793.86 129.57l219.428 219.428-51.719 51.719-219.428-219.428 51.719-51.719zM793.86 181.291l-219.428 219.428-51.719-51.719 219.428-219.428 51.719 51.719zM219.43 301.716c0-20.199 16.375-36.571 36.571-36.571s36.571 16.373 36.571 36.571h-73.143zM256.001 740.571l25.86 25.86c-14.281 14.283-37.438 14.283-51.719 0l25.86-25.86zM10.713 547.004c-14.283-14.281-14.283-37.438 0-51.719s37.438-14.283 51.719 0l-51.719 51.719zM449.568 495.283c14.281-14.283 37.438-14.283 51.719 0s14.281 37.438 0 51.719l-51.719-51.719zM292.572 301.716v438.856h-73.143v-438.856h73.143zM230.14 766.432l-219.428-219.428 51.719-51.719 219.428 219.428-51.719 51.719zM230.14 714.711l219.428-219.428 51.719 51.719-219.428 219.428-51.719-51.719z" />
<glyph unicode="&#xe901;" glyph-name="breakfast" d="M7.153 807.983c4.582 4.582 10.794 7.154 17.274 7.154h836.157c13.489 0 24.428-10.936 24.428-24.428-0.005-34.49-1.217-99.666-6.269-154.671 37.893-8.005 76.372-22.561 104.406-48.602 35.919-33.364 51.075-82.122 33.56-146.559-16.718-61.524-58.912-93.198-107.671-101.574-38.836-6.672-80.671 1.475-116.552 17.77-26.46-41.527-56.278-82.307-89.363-113.639-39.056-36.789-85.714-63.431-141.273-63.431h-195.426c-62.717 0.102-119.885 10.88-167.41 35.416-47.29 25.024-89.137 66.445-122.422 123.308-34.224 58.897-52.921 151.046-63.387 236.455-10.558 86.365-13.2 170.68-13.205 215.526 0 6.48 2.573 12.692 7.154 17.274zM817.472 399.454c27.418-11.547 57.426-16.446 83.296-12 30.853 5.299 57.275 23.842 68.795 66.237 13.436 49.425 1.144 78.622-19.66 97.95-18.341 17.034-45.696 28.583-77.056 35.676-9.409-63.375-26.001-130.755-55.374-187.863zM49.078 766.281c0.803-46.299 3.97-114.743 12.619-185.157 10.429-85.114 28.372-168.352 57.135-217.85 29.702-51.535 61.732-83.394 102.811-104.559 40.844-21.653 86.539-29.958 144.78-29.856h195.426c38.704 0 73.969 18.292 107.773 50.136 34.648 32.456 64.588 76.021 93.214 122.844 36.662 59.945 55.652 140.461 64.984 217.119 5.623 46.008 7.626 105.793 8.168 147.322h-786.91zM45.156 105.292c0 13.489 10.936 24.428 24.428 24.428h714.092c13.489 0 24.428-10.939 24.428-24.428 0-13.494-10.939-24.428-24.428-24.428h-714.092c-13.492 0-24.428 10.935-24.428 24.428z" />
<glyph unicode="&#xe902;" glyph-name="lift" d="M302.724 483.377c32.672 0 59.164 24.367 59.164 54.419 0 30.054-26.491 54.421-59.164 54.421-32.677 0-59.164-24.366-59.164-54.421 0-30.052 26.487-54.419 59.164-54.419zM239.433 471.368c-41.898 0-75.593-31.433-75.593-70.632v-167.084c0-32.485 51.686-32.485 51.686 0v152.781h12.236v-418.338c0-43.43 68.827-42.152 68.827 0v242.839h11.854v-242.839c0-42.152 69.206-43.43 69.206 0v418.338h11.949v-152.781c0-32.735 51.418-32.735 51.324 0v166.085c0 36.147-30.519 71.553-76.522 71.553l-124.967 0.078zM712.323 483.377c32.673 0 59.167 24.367 59.167 54.419 0 30.054-26.493 54.421-59.167 54.421-32.678 0-59.163-24.366-59.163-54.421 0-30.052 26.485-54.419 59.163-54.419zM649.032 471.368c-41.898 0-75.592-31.433-75.592-70.632v-167.084c0-32.485 51.688-32.485 51.688 0v152.781h12.234v-418.338c0-43.43 68.826-42.152 68.826 0v242.839h11.858v-242.839c0-42.152 69.202-43.43 69.202 0v418.338h11.953v-152.781c0-32.735 51.418-32.735 51.323 0v166.085c0 36.147-30.519 71.553-76.521 71.553l-124.969 0.078zM716.8 960c11.309 0 20.48-9.169 20.48-20.48v-155.356l87.917 87.918c8 7.999 20.968 7.999 28.966 0 7.995-7.997 7.995-20.965 0-28.963l-122.88-122.88c-8-7.999-20.968-7.999-28.966 0l-122.88 122.88c-7.996 7.997-7.996 20.965 0 28.963 8 7.999 20.968 7.999 28.966 0l87.917-87.918v155.356c0 11.311 9.171 20.48 20.48 20.48zM307.2 714.24c-11.31 0-20.48 9.17-20.48 20.48v155.356l-87.918-87.918c-7.997-7.999-20.965-7.999-28.963 0s-7.997 20.965 0 28.963l122.88 122.88c7.997 7.997 20.965 7.997 28.963 0l122.88-122.88c7.999-7.997 7.999-20.965 0-28.963s-20.965-7.999-28.963 0l-87.918 87.918v-155.356c0-11.31-9.17-20.48-20.48-20.48z" />
<glyph unicode="&#xe903;" glyph-name="gym" d="M19.692 467.692c-10.876 0-19.692-8.817-19.692-19.692s8.816-19.692 19.692-19.692h59.077v39.385h-59.077zM669.538 467.692h-315.077v-39.385h315.077v39.385zM1004.308 467.692h-59.077v-39.385h59.077c10.874 0 19.692 8.817 19.692 19.692s-8.818 19.692-19.692 19.692zM157.538 585.846v-39.385h-39.385c-21.769 0-39.385-17.632-39.385-39.385v-118.154c0-21.753 17.616-39.385 39.385-39.385h39.385v-39.385c0-21.753 17.616-39.385 39.385-39.385h118.154c21.769 0 39.385 17.632 39.385 39.385v275.692c0 21.753-17.616 39.385-39.385 39.385h-118.154c-21.769 0-39.385-17.632-39.385-39.385zM196.923 585.846h118.154v-275.692h-118.154v275.692zM157.538 507.077v-118.154h-39.385v118.154h39.385zM866.462 310.154v39.385h39.385c21.767 0 39.385 17.632 39.385 39.385v118.154c0 21.753-17.617 39.385-39.385 39.385h-39.385v39.385c0 21.753-17.617 39.385-39.385 39.385h-118.154c-21.767 0-39.385-17.632-39.385-39.385v-275.692c0-21.753 17.617-39.385 39.385-39.385h118.154c21.767 0 39.385 17.632 39.385 39.385zM708.923 585.846h118.154v-275.692h-118.154v275.692zM866.462 388.923v118.154h39.385v-118.154h-39.385z" />
<glyph unicode="&#xe904;" glyph-name="spa" d="M505.969 827.441l191.73-374.052c30.221-56.599 28.095-127.283-4.443-183.81-33.139-57.556-96.952-99.215-186.877-99.215-91.789 0-150.308 48.191-179.262 107.84-28.028 57.742-28.959 127.481-6.1 174.53l0.067 0.137 184.886 374.572zM506.794 718.905l-141.936-287.552c-15.415-31.794-16.276-85.675 6.14-131.85 21.507-44.309 63.853-80.363 135.381-80.363 73.393 0 120.619 33.119 144.602 74.778 24.539 42.626 25.652 95.499 3.614 136.642l-0.21 0.389-147.592 287.956zM415.756 360.152c-8.222 21.745-11.353 45.699-11.4 59.409h48.776c-0.047-10.679 1.7-25.745 8.111-41.801 6.126-15.826 15.151-27.921 27.187-33.938l-21.815-43.627c-26.988 13.496-42.351 37.981-50.858 59.957zM280.286 284.547c1.722-13.36-7.71-25.583-21.068-27.31-68.509-8.813-123.792-20.715-162.737-35.037-18.972-6.906-31.564-13.154-40.48-20.233-4.928-3.565-6.126-6.356-6.577-7.409-0.066-0.151-0.116-0.268-0.16-0.346 0.355-0.674 1.059-1.649 2.442-2.911 4.638-4.917 10.85-8.97 21.791-14.311 22.887-11.385 55.664-21.398 98.689-30.359 86.889-18.178 206.296-29.33 339.813-29.299 133.516-0.029 252.92 11.121 339.809 29.299 43.025 8.96 75.803 18.974 98.689 30.359 10.941 5.341 17.154 9.394 21.794 14.311 1.459 1.337 2.161 2.346 2.497 3.020-0.253 0.692-0.985 3.146-5.443 6.565-7.653 6.512-18.373 12.203-35.030 18.73-34.334 13.609-83.203 25.135-144.588 34.177-13.325 1.966-22.53 14.365-20.564 27.69s14.365 22.53 27.69 20.559c63.443-9.389 117.731-22.275 155.357-37.055 19.32-7.667 36.773-17.165 48.304-26.583 12.185-10.121 23.486-24.672 23.486-43.655 0-15.511-7.638-28.164-16.877-37.587-8.35-8.336-21.3-17.072-35.030-23.909-26.466-12.974-65.096-24.9-110.312-34.363-89.593-18.666-213.99-30.31-349.779-30.334-135.788 0.024-260.189 11.667-349.78 30.334-45.216 9.463-83.848 21.388-110.31 34.363-13.735 6.838-26.684 15.575-35.035 23.909-9.239 9.423-16.877 22.076-16.877 37.587 0 20.233 12.781 35.396 26.071 45.728 12.804 9.809 32.069 19.579 53.643 27.525 42.15 15.374 102.726 28.49 173.271 37.611 13.359 1.722 25.585-7.707 27.307-21.067z" />
<glyph unicode="&#xe905;" glyph-name="stairs" d="M27.219 116.706c-16.634 0-30.118-13.487-30.118-30.118s13.483-30.118 30.118-30.118v60.235zM268.161 86.588v-30.118c16.632 0 30.118 13.487 30.118 30.118h-30.118zM268.161 331.232v30.118c-16.632 0-30.118-13.483-30.118-30.118h30.118zM509.101 331.232v-30.118c16.632 0 30.118 13.485 30.118 30.118h-30.118zM509.101 568.471v30.118c-16.632 0-30.118-13.485-30.118-30.118h30.118zM750.042 568.471v-30.118c16.631 0 30.118 13.485 30.118 30.118h-30.118zM750.042 809.412v30.118c-16.631 0-30.118-13.483-30.118-30.118h30.118zM990.983 779.294c16.631 0 30.118 13.483 30.118 30.118s-13.487 30.118-30.118 30.118v-60.235zM27.219 56.471h240.941v60.235h-240.941v-60.235zM298.278 86.588v244.644h-60.235v-244.644h60.235zM268.161 301.114h240.941v60.235h-240.941v-60.235zM539.219 331.232v237.239h-60.235v-237.239h60.235zM509.101 538.353h240.941v60.235h-240.941v-60.235zM780.16 568.471v240.941h-60.235v-240.941h60.235zM750.042 779.294h240.941v60.235h-240.941v-60.235z" />
<glyph unicode="&#xe906;" glyph-name="swimming" d="M828.961 694.057h48.76v48.76c0 72.411-61.568 141.761-172.039 141.761-107.71 0-169.278-68.59-169.278-141.761v-48.76h48.76v48.76c0 42.262 35.57 93.001 120.518 93.001 82.136 0 123.279-46.096 123.279-93.001v-48.76zM24.379 694.057c-13.476 0-24.38-10.916-24.38-24.38s10.904-24.38 24.38-24.38h414.504v-605.020c0-13.467 10.904-24.38 24.38-24.38 13.427 0 24.381 10.913 24.381 24.38v112.912h341.268l0.049-117.38c0-13.467 10.902-24.38 24.38-24.38 13.473 0 24.38 10.913 24.38 24.38v609.486h121.899c13.473 0 24.38 10.916 24.38 24.38s-10.907 24.38-24.38 24.38h-511.97v48.76c0 72.411-61.57 141.761-172.041 141.761-107.71 0-169.278-68.59-169.278-141.761v-48.76h-121.946zM487.644 494.501v150.797h341.317l-0.049-150.797h-341.268zM487.644 445.741h341.268v-97.86h-341.268v97.86zM487.644 299.121h341.268v-97.178h-341.268v97.178zM315.603 835.818c82.139 0 123.279-46.096 123.279-93.001v-48.76h-243.798v48.76c0 42.262 35.57 93.001 120.518 93.001z" />
<glyph unicode="&#xe907;" glyph-name="check" d="M366.399 64l-366.4 368.908 102.4 103.965 264-264.943 555.2 560.070 102.4-103.965-657.6-664.035z" />
<glyph unicode="&#xe908;" glyph-name="star" d="M511.999 934.938l120.866-371.988h391.135l-316.435-229.901 120.866-371.987-316.432 229.9-316.432-229.9 120.866 371.987-316.432 229.901h391.132l120.866 371.988z" />
<glyph unicode="&#xe909;" glyph-name="upgrade" d="M593.913 896.722c-43.114 50.001-120.675 50.001-163.79 0l-403.662-467.552c-60.444-70.113-10.673-178.913 82-178.913h91.195v-180.273c0-59.761 48.396-108.207 108.207-108.207h407.994c59.811 0 108.207 48.445 108.207 108.207v180.273h91.512c92.673 0 142.444 108.799 81.894 178.913l-403.557 467.552z" />
<glyph unicode="&#xe90a;" glyph-name="like" d="M1023.998 597.56c0 143.618-123.422 260.040-275.693 260.040-100.303 0-188.067-50.531-236.299-126.070-48.231 75.538-136.010 126.070-236.313 126.070-152.271 0-275.693-116.422-275.693-260.040 0-74.73 33.483-142.057 87.006-189.487h-0.073l394.7-356.241c7.24-8.204 18.099-13.432 30.271-13.432 11.275 0 21.427 4.51 28.609 11.713l396.496 357.961c53.53 47.423 86.991 114.75 86.991 189.487z" />
<glyph unicode="&#xe90b;" glyph-name="arrow" d="M950.857 374.857c40.396 0 73.143 32.748 73.143 73.143s-32.747 73.143-73.143 73.143v-146.286zM73.143 448l-51.719 51.719c-28.565-28.564-28.565-74.875 0-103.439l51.719 51.719zM460.281-42.576c28.564-28.565 74.875-28.565 103.439 0s28.565 74.875 0 103.439l-103.439-103.439zM563.719 835.137c28.565 28.564 28.565 74.875 0 103.44-28.564 28.564-74.875 28.564-103.439 0l103.439-103.44zM950.857 521.143h-877.714v-146.286h877.714v146.286zM21.424 396.281l438.857-438.857 103.439 103.439-438.857 438.857-103.439-103.439zM124.862 396.281l438.857 438.857-103.439 103.44-438.857-438.858 103.439-103.439z" />
<glyph unicode="&#xe90c;" glyph-name="leaf" d="M179.123 246.599c-1.876-18.758 11.81-35.484 30.568-37.36s35.484 11.81 37.36 30.568l-67.928 6.793zM964.021 891.736l33.116 8.279c-3.802 15.195-17.456 25.855-33.116 25.855v-34.133zM281.354 140.803l6.694 33.471c-8.081 1.618-16.474 0.253-23.629-3.837l16.935-29.635zM42.421 4.27l-16.935 29.635c-16.047-9.168-21.881-29.443-13.16-45.739s28.828-22.692 45.359-14.425l-15.265 30.529zM720.792 533.826c9.156 16.479 3.217 37.259-13.261 46.415s-37.259 3.217-46.415-13.261l59.676-33.153zM247.051 239.807c10.674 106.744 80.888 308.909 229.105 457.127l-48.271 48.271c-160.455-160.455-236.681-377.794-248.762-498.606l67.928-6.793zM476.156 696.934c143.83 143.83 352.15 160.669 487.864 160.669v68.267c-137.353 0-371.294-15.822-536.136-180.664l48.271-48.271zM930.905 883.458c16.493-65.456 24.603-169.722 7.885-281.12-16.473-111.196-57.201-222.629-135.441-300.866l48.278-48.271c92.426 92.43 137.032 219.93 154.692 339.134 17.415 119.002 8.458 236.603-9.182 307.68l-66.232-16.557zM803.348 301.472c-200.18-200.182-401.64-149.931-515.3-127.198l-13.388-66.942c113.895-22.781 349.437-81.661 576.967 145.869l-48.278 48.271zM264.419 170.438l-238.933-136.533 33.87-59.269 238.933 136.533-33.87 59.269zM57.686-26.259c80.657 40.346 211.429 117.118 338.29 214.207 126.454 96.849 253.156 216.89 324.816 345.879l-59.676 33.153c-64.873-116.771-182.794-229.975-306.65-324.838-123.45-94.635-248.678-168.049-327.31-207.343l30.53-61.058z" />
<glyph unicode="&#xe90d;" glyph-name="eye" d="M25.302 442.035l-21.975 8.097-3.327-9.029 3.982-8.76 21.321 9.691zM997.831 442.035l20.563-11.214 5.607 10.279-4.862 10.654-21.308-9.719zM47.277 433.937c40.22 109.152 186.782 324.763 449.38 324.763v46.839c-291.073 0-450.010-237.837-493.33-355.409l43.951-16.194zM496.658 758.7c133.001 0.636 237.888-52.809 319.933-122.034 81.81-68.5 134.898-149.292 159.933-204.351l42.614 19.438c-26.671 58.303-85.749 147.553-172.393 220.757-86.405 72.477-206.248 132.394-350.088 133.030v-46.839zM977.273 453.248c-29.003-53.292-86.977-131.681-170.355-198.007-83.581-66.91-186.721-118.555-310.26-117.942v-46.839c134.219 0.618 251.833 58.358 339.488 128.176 87.852 70.404 151.587 156.092 182.248 212.184l-41.121 22.427zM496.658 137.3c-123.324-0.665-221.163 50.671-298.409 117.389-77.055 66.031-127.553 143.919-151.626 197.037l-42.641-19.383c25.649-56.267 81.952-142.454 163.706-213.154 81.564-70.016 194.543-128.059 328.97-128.729v46.839zM632.562 448.045c0-68.095-55.203-123.298-123.298-123.298s-123.298 55.203-123.298 123.298c0 68.095 55.203 123.298 123.298 123.298s123.298-55.203 123.298-123.298zM703.981 447.922c0-105.932-85.857-191.806-191.795-191.806s-191.795 85.874-191.795 191.806c0 18.697 2.699 36.77 7.685 53.855-14.363 14.231-24.746 32.459-29.366 52.889-16.101-32.122-25.158-68.372-25.158-106.744 0-131.799 106.853-238.644 238.635-238.644 131.828 0 238.636 106.845 238.636 238.644s-106.809 238.646-238.636 238.646c-22.505 0-44.278-3.122-64.953-8.954 18.937-8.262 35.084-21.802 46.519-38.76 6.083 0.577 12.213 0.875 18.434 0.875 105.938 0 191.795-85.874 191.795-191.806z" />
<glyph unicode="&#xe90e;" glyph-name="waves" d="M51.201 692.622c-9.425 12.567-27.254 15.114-39.822 5.689s-15.114-27.254-5.689-39.822l45.511 34.133zM975.44 598.553c11.11-11.108 29.121-11.108 40.232 0 11.104 11.108 11.104 29.118 0 40.226l-40.232-40.226zM5.69 658.489c18.198-24.264 58.512-55.236 114.314-80.037 55.415-24.532 132.301-44.877 221.33-45.118v56.889c-81.637-0.241-146.974 17.34-198.225 40.215-50.864 22.606-81.661 48.523-91.908 62.185l-45.511-34.133zM341.334 533.333c91.238 0.619 160.886 30.896 224.886 59.34s122.352 55.057 201.781 54.437v56.889c-91.238-0.619-160.887-30.896-224.886-59.34s-122.352-55.057-201.781-54.437v-56.889zM768 647.111c65.712 0.115 113.567-8.644 149.282-20.008 35.242-11.152 53.185-23.576 58.157-28.549l40.232 40.226c-13.994 13.99-41.563 30.010-81.22 42.561-39.185 12.34-95.63 22.544-166.451 22.659v-56.889zM51.201 521.955c-9.425 12.567-27.254 15.114-39.822 5.689s-15.114-27.254-5.689-39.822l45.511 34.133zM975.44 427.887c11.11-11.108 29.121-11.108 40.232 0 11.104 11.108 11.104 29.118 0 40.226l-40.232-40.226zM5.69 487.822c18.198-24.264 58.512-55.236 114.314-80.037 55.415-24.532 132.301-44.877 221.33-45.118v56.889c-81.637-0.241-146.974 17.34-198.225 40.215-50.864 22.606-81.661 48.523-91.908 62.185l-45.511-34.133zM341.334 362.667c91.238 0.619 160.886 30.896 224.886 59.34s122.352 55.057 201.781 54.437v56.889c-91.238-0.619-160.887-30.896-224.886-59.34s-122.352-55.057-201.781-54.437v-56.889zM768 476.444c65.712 0.115 113.567-8.644 149.282-20.008 35.242-11.152 53.185-23.576 58.157-28.549l40.232 40.226c-13.994 13.99-41.563 30.010-81.22 42.561-39.185 12.34-95.63 22.544-166.451 22.659v-56.889zM51.201 351.289c-9.425 12.567-27.254 15.114-39.822 5.689s-15.114-27.254-5.689-39.822l45.511 34.133zM975.44 257.221c11.11-11.108 29.121-11.108 40.232 0 11.104 11.108 11.104 29.118 0 40.226l-40.232-40.226zM5.69 317.156c18.198-24.264 58.512-55.236 114.314-80.037 55.415-24.532 132.301-44.877 221.33-45.118v56.889c-81.637-0.241-146.974 17.34-198.225 40.215-50.864 22.606-81.661 48.523-91.908 62.185l-45.511-34.133zM341.334 192c91.238 0.619 160.886 30.896 224.886 59.34s122.352 55.057 201.781 54.437v56.889c-91.238-0.619-160.887-30.896-224.886-59.34s-122.352-55.057-201.781-54.437v-56.889zM768 305.778c65.712 0.115 113.567-8.644 149.282-20.008 35.242-11.152 53.185-23.576 58.157-28.549l40.232 40.226c-13.994 13.99-41.563 30.010-81.22 42.561-39.185 12.34-95.63 22.544-166.451 22.659v-56.889z" />
<glyph unicode="&#xe90f;" glyph-name="alert" d="M1012.415 137.395l-414.944 718.914c-38.6 62.724-130.273 62.724-168.873 0l-414.944-718.914c-38.6-62.724 9.65-144.748 82.024-144.748h829.888c77.198 0 120.624 77.198 86.849 144.748zM925.566 40.896h-829.888c-38.6 0-62.724 38.6-43.424 72.374l414.944 718.914c19.299 33.774 62.724 33.774 82.024 0l414.944-718.914c24.125-33.774 0-72.374-38.6-72.374zM491.323 238.719h53.075v-53.075h-53.075v53.075zM486.497 479.965l14.475-197.822h28.95l14.475 197.822v86.849h-57.899z" />
<glyph unicode="&#xe910;" glyph-name="enlarge" d="M236.308-24.616h-236.308v236.308h78.769v-157.539h157.539v-78.769zM78.769 684.308h-78.769v236.308h236.308v-78.769h-157.539v-157.539zM1024-24.616h-236.308v78.769h157.539v157.539h78.769v-236.308zM1024 684.308h-78.769v157.539h-157.539v78.769h236.308v-236.308zM868.179 132.923h-710.64v630.154h710.64v-630.154zM236.308 211.692h551.384v472.616h-551.384v-472.616z" />
<glyph unicode="&#xe911;" glyph-name="zoom-out" d="M626.478 544.241h-359.298c-15.399 0-25.664-10.265-25.664-25.664s10.265-25.664 25.664-25.664h359.298c15.399 0 25.664 10.265 25.664 25.664s-10.265 25.664-25.664 25.664zM1006.307-15.237l-261.774 261.774c76.993 76.993 123.188 179.649 123.188 292.571 0 230.978-189.915 420.892-426.025 420.892s-431.157-195.047-431.157-426.025 189.915-420.892 426.025-420.892c102.657 0 195.047 35.929 266.907 92.39l261.774-261.774c10.265-10.265 25.664-10.265 35.929 0 15.399 15.399 15.399 30.797 5.133 41.063zM61.866 533.975c0 205.313 169.383 369.564 374.696 369.564 210.446 0 374.696-164.25 374.696-369.564 0-200.18-169.383-369.564-374.696-369.564-205.313 5.133-374.696 169.383-374.696 369.564z" />
<glyph unicode="&#xe912;" glyph-name="zoom-in" d="M1008.199-15.237l-261.774 261.774c76.993 76.993 123.188 179.649 123.188 292.571 0 230.978-189.915 420.892-426.025 420.892s-431.157-195.047-431.157-426.025 189.915-420.892 426.025-420.892c102.657 0 195.047 35.929 266.907 92.39l261.774-261.774c10.265-10.265 25.664-10.265 35.929 0s10.265 30.797 5.133 41.063zM63.759 533.975c0 205.313 169.383 369.564 374.696 369.564 210.446 0 374.696-164.25 374.696-369.564 0-200.18-169.383-369.564-374.696-369.564-205.313 5.133-374.696 169.383-374.696 369.564zM628.37 544.241h-153.985v153.985c0 15.399-10.265 25.664-25.664 25.664s-25.664-10.265-25.664-25.664v-153.985h-153.985c-15.399 0-25.664-10.265-25.664-25.664s10.265-25.664 25.664-25.664h153.985v-153.985c0-15.399 10.265-25.664 25.664-25.664s25.664 10.265 25.664 25.664v153.985h153.985c15.399 0 25.664 10.265 25.664 25.664s-10.265 25.664-25.664 25.664z" />
<glyph unicode="&#xe913;" glyph-name="chevron" d="M157.085 704l-52.362 52.361-104.723-104.723 52.362-52.362 104.723 104.724zM512.001 244.361l-52.362-52.362 52.362-52.362 52.362 52.362-52.362 52.362zM971.64 599.277l52.361 52.362-104.722 104.723-52.361-52.361 104.722-104.724zM52.362 599.277l407.277-407.277 104.724 104.723-407.278 407.278-104.723-104.724zM564.363 191.999l407.277 407.277-104.722 104.724-407.278-407.278 104.724-104.723z" />
<glyph unicode="&#xe914;" glyph-name="building" d="M615.912-63.886h-261.196c-19.418 0-33.488 16.279-33.488 38.783v946.317c0 22.506 14.055 38.785 33.488 38.785h261.196c19.418 0 33.491-16.279 33.491-38.785v-946.317c0-22.505-14.008-38.783-33.426-38.783h-0.064zM354.716-25.103h261.196v946.317h-261.196v-946.317zM1003.487 718.856l-305.445 181.847v-925.042h-348.578v668.072c-11.747 23.707-39.155 43.489-70.511 43.489h-176.231c-43.071 0-82.242-35.671-82.242-83.018v-668.204h979.125l3.915 782.678-0.032 0.178zM870.343 707.020h90.089v-90.964h-90.089v90.964zM870.343 548.864h90.089v-90.917h-90.089v90.917zM870.343 382.827h90.089v-90.917h-90.089v90.917zM870.343 220.745h90.089v-90.931h-90.089v90.931zM741.097 707.020h90.092v-90.964h-90.092v90.964zM741.097 548.864h90.092v-90.917h-90.092v90.917zM741.097 382.827h90.092v-90.917h-90.092v90.917zM741.097 220.745h90.092v-90.931h-90.092v90.931zM212.373 608.159h82.226v-83.017h-82.226v83.017zM212.373 461.903h82.226v-83.017h-82.226v83.017zM212.373 315.617h82.226v-83.020h-82.226v83.020zM212.373 169.361h82.226v-83.020h-82.226v83.020zM79.212 608.274h82.242v-83.020h-82.242v83.020zM79.212 462.017h82.242v-83.017h-82.242v83.017zM79.212 315.728h82.242v-83.017h-82.242v83.017zM79.212 169.475h82.242v-83.020h-82.242v83.020z" />
<glyph unicode="&#xe915;" glyph-name="hotel" d="M827.922 6.642h-640.182c-21.32 0-36.792 14.66-36.792 34.882v410.363l-74.99-65.46-75.958 82.365 500.848 420.566h21.318l501.834-421.382-85.119-80.78-74.133 64.692v-410.348c0-20.236-15.473-34.882-36.824-34.882v-0.015zM187.74 531.359v-489.821h640.231v489.821l109.828-95.807 32.576 30.884-458.854 385.257-459.822-386.070 27.037-29.303 109.004 95.038zM380.956 183.167v348.377h48.648v-143.058h190.939v143.058h48.663v-348.407h-48.663v164.262h-190.909v-164.262h-48.645z" />
<glyph unicode="&#xe916;" glyph-name="calendar" d="M1020.223 553.802c0 3.778 3.778 3.778 3.778 7.557s0 7.557-3.778 11.335v109.579c0 90.687-68.015 162.48-158.701 162.48h-68.015v56.679c0 0-3.778 18.893-18.893 18.893s-18.893-18.893-18.893-18.893v-56.679h-491.219v56.679c0 0-3.778 18.893-18.893 18.893s-18.893-18.893-18.893-18.893v-56.679h-68.015c-86.908 0-158.701-75.572-158.701-166.258v-117.137c0 0 0 0 0 0s0 0 0 0v-419.425c0-94.466 68.015-166.258 158.701-166.258h702.821c86.908 0 158.701 75.572 158.701 166.258 0 0 0 0 0 3.778v408.090zM37.784 678.496c0 71.794 56.679 128.473 120.916 128.473h68.015v-132.251c0-15.115 11.335-18.893 18.893-18.893s18.893 3.778 18.893 18.893v132.251h491.219v-132.251c0 0 3.778-18.893 18.893-18.893s18.893 18.893 18.893 18.893v132.251h68.015c68.015 0 120.916-52.9 120.916-128.473v-102.022h-944.652v102.022zM861.52 13.461h-702.821c-68.015 0-120.916 52.9-120.916 128.473v404.311h944.652v-404.311c0 0 0 0 0-3.778 0-68.015-56.679-124.694-120.916-124.694zM188.928 429.108h75.572v-75.572h-75.572v75.572zM377.859 429.108h75.572v-75.572h-75.572v75.572zM188.928 240.178h75.572v-75.572h-75.572v75.572zM377.859 240.178h75.572v-75.572h-75.572v75.572zM566.789 429.108h75.572v-75.572h-75.572v75.572zM755.719 429.108h75.572v-75.572h-75.572v75.572zM566.789 240.178h75.572v-75.572h-75.572v75.572zM755.719 240.178h75.572v-75.572h-75.572v75.572z" />
<glyph unicode="&#xe917;" glyph-name="position" d="M512.13 960c-196.852 0-356.979-161.913-356.979-360.678 0-184.683 291.407-590.676 324.558-636.393l12.269-16.71c4.651-6.687 12.22-10.218 20.132-10.218 7.776 0 15.239 3.531 19.996 10.166l12.148 16.797c33.15 45.717 324.592 451.677 324.592 636.359 0.155 198.765-160.005 360.678-356.824 360.678h0.106zM512.13 420.336c-80.949 0-146.624 66.498-146.624 148.179 0 81.685 65.675 148.113 146.624 148.113 80.707 0 146.519-66.428 146.519-148.113 0-81.51-65.778-148.179-146.519-148.179z" />
<glyph unicode="&#xe918;" glyph-name="facebook" d="M582.851 448.036v-477.092h-190.515v477.092h-95.274v164.445h95.274v98.708c0 134.079 53.743 213.868 206.499 213.868h127.176v-164.411h-79.489c-59.468 0-63.439-22.997-63.439-65.874l-0.231-82.291h144.086l-16.877-164.445h-127.208z" />
<glyph unicode="&#xe919;" glyph-name="twitter" d="M919.177 668.512c0.379-9.495 0.617-19.063 0.617-28.702 0-293.152-211.323-631.177-597.731-631.177-118.637 0-229.068 36.75-322.063 99.714 16.445-2.094 33.198-3.107 50.121-3.107 98.431 0 189.032 35.454 260.932 94.985-91.934 1.731-169.509 65.89-196.28 154.014 12.855-2.563 26.017-3.971 39.556-3.971 19.18 0 37.711 2.671 55.352 7.762-96.14 20.398-168.518 110.077-168.518 217.518 0 0.939 0 1.878 0 2.816 28.309-16.643 60.721-26.571 95.183-27.762-56.412 39.785-93.473 107.73-93.473 184.665 0 40.687 10.359 78.776 28.446 111.521 103.593-134.229 258.436-222.499 433.006-231.778-3.589 16.246-5.471 33.178-5.471 50.544 0 122.531 94.086 221.813 210.125 221.813 60.378 0 114.98-26.932 153.343-70.038 47.829 9.964 92.789 28.412 133.369 53.864-15.69-51.807-48.995-95.311-92.347-122.748 42.465 5.379 82.978 17.293 120.656 34.911-28.173-44.479-63.796-83.541-104.824-114.842v0z" />
<glyph unicode="&#xe91a;" glyph-name="linkedin" d="M244.109 833.578c0-69.479-55.973-125.8-125.016-125.8s-125.016 56.321-125.016 125.8c0 69.476 55.972 125.798 125.016 125.798 69.047 0 125.016-56.321 125.016-125.798zM225.839 618.494h-211.416v-681.751h211.416v681.751zM563.745 618.509h-202.771v-681.753h202.771c0 0 0 252.872 0 357.874 0 95.869 44.214 152.935 128.832 152.935 77.754 0 115.11-54.783 115.11-152.935 0-98.155 0-357.874 0-357.874h210.39c0 0 0 249.068 0 431.676 0 182.611-103.668 270.875-248.508 270.875-144.846 0-205.826-112.611-205.826-112.611v91.813h0.002z" />
<glyph unicode="&#xe91b;" glyph-name="google-plus" d="M1023.999 657.863h-162.796v-166.413h-64.472v166.413h-162.796v65.86h162.796v166.413h64.472v-166.413h162.796v-65.86zM444.064 381.167c-24.247 17.545-70.569 60.114-70.569 85.168 0 29.342 8.212 43.846 51.41 78.326 44.329 35.393 75.686 85.167 75.686 143.030 0 68.869-30.019 136.037-86.367 158.203h84.969l59.95 44.241h-267.97c-120.105 0-233.188-93.012-233.188-200.68 0-110.161 81.904-199.008 204.152-199.008 8.45 0 16.691 0.182 24.842 0.79-7.973-15.568-13.626-33.021-13.626-51.143 0-30.589 16.095-55.459 36.474-75.713-15.411 0-30.227-0.423-46.471-0.423-148.785 0-263.356-96.843-263.356-197.277 0-98.938 125.579-160.817 274.424-160.817 169.641 0 263.297 98.334 263.297 197.337 0 79.269-22.907 126.794-93.657 177.965zM300.858 518.299c-69.023 2.158-134.623 78.995-146.524 171.642-11.929 92.648 34.363 163.554 103.355 161.456 69.023-2.189 134.683-76.471 146.553-169.058 11.93-92.708-34.363-166.047-103.385-164.041zM273.845 49.568c-102.879 0-177.138 66.592-177.138 146.529 0 78.262 92.139 143.513 194.988 142.391 23.95-0.242 46.382-4.229 66.642-10.854 55.843-39.742 95.918-62.181 107.193-107.396 2.143-9.122 3.273-18.638 3.273-28.248 0-79.938-50.398-142.421-194.959-142.421z" />
<glyph unicode="&#xe91c;" glyph-name="phone" d="M926.895 60.885l-163.913 182.318c-14.37 14.694-35.92 22.039-50.284 7.344 0 0-25.014-25.475-44.402-35.391-14.369-7.344-35.919-14.689-43.102-22.039-93.384-14.689-208.317 132.232-244.233 190.999-71.834 117.542-64.651 205.695-57.467 220.388s21.55 29.384 35.917 36.731l62.929 36.731c14.367 7.346 21.55 29.384 14.367 51.423l-120.397 213.039c-14.367 14.692-35.917 22.039-50.284 14.692l-100.567-66.116c-7.129-5.253-21.55-13.414-21.55-14.692-35.917-29.384-64.65-66.116-57.467-146.924 7.183-66.116 35.917-249.769 179.584-455.46 7.183-14.694 208.318-279.154 459.733-337.926h71.834c57.469 14.694 93.383 29.383 114.933 51.422 35.92 22.039 28.735 58.772 14.37 73.461z" />
<glyph unicode="&#xe91d;" glyph-name="login" d="M511.699 643.529c89.042 0 161.86 71.221 161.86 158.237 0 87.038-72.818 158.235-161.86 158.235s-161.859-71.187-161.859-158.235c0-87.005 72.817-158.237 161.859-158.237zM203.146 339.907h621.119v83.705c0 118.294-202.161 180.144-310.616 180.144-108.387 0-310.504-61.851-310.504-180.155v-83.694zM142.647-60.948v178.733h23.652v-157.641h88.025v-21.092h-111.677zM275.416 26.1c0 29.667 7.965 52.873 23.897 69.616 15.93 16.825 36.495 25.237 61.691 25.237 16.499 0 31.374-3.942 44.623-11.826s23.327-18.898 30.234-33.041c6.992-14.062 10.487-30.032 10.487-47.914 0-18.125-3.658-34.34-10.974-48.646s-17.678-25.156-31.089-32.553c-13.412-7.315-27.878-10.973-43.403-10.973-16.826 0-31.862 4.064-45.111 12.192s-23.286 19.222-30.114 33.284c-6.828 14.062-10.241 28.936-10.241 44.622zM299.799 25.734c0-21.539 5.771-38.526 17.312-50.962 11.623-12.355 26.172-18.531 43.647-18.531 17.8 0 32.432 6.258 43.889 18.776 11.542 12.518 17.313 30.277 17.313 53.279 0 14.548-2.478 27.229-7.438 38.039-4.875 10.891-12.069 19.304-21.579 25.237-9.426 6.015-20.034 9.022-31.819 9.022-16.744 0-31.171-5.77-43.281-17.312-12.030-11.46-18.045-30.643-18.045-57.546zM560.583 9.154v20.971l75.712 0.122v-66.324c-11.623-9.266-23.611-16.256-35.965-20.971-12.357-4.633-25.034-6.949-38.041-6.949-17.557 0-33.527 3.739-47.913 11.217-14.307 7.559-25.116 18.45-32.432 32.674s-10.974 30.115-10.974 47.67c0 17.394 3.617 33.609 10.852 48.646 7.316 15.118 17.8 26.335 31.454 33.65s29.382 10.973 47.183 10.973c12.925 0 24.589-2.113 34.991-6.34 10.487-4.145 18.695-9.957 24.629-17.434s10.444-17.231 13.533-29.261l-21.336-5.852c-2.685 9.104-6.015 16.256-9.997 21.457s-9.672 9.347-17.069 12.436c-7.397 3.169-15.605 4.755-24.629 4.755-10.809 0-20.156-1.666-28.041-4.999-7.884-3.251-14.264-7.559-19.142-12.923-4.794-5.364-8.533-11.257-11.217-17.678-4.55-11.054-6.826-23.043-6.826-35.967 0-15.93 2.722-29.261 8.168-39.99 5.527-10.729 13.533-18.694 24.017-23.896 10.487-5.202 21.62-7.803 33.409-7.803 10.24 0 20.237 1.95 29.991 5.852 9.754 3.982 17.15 8.21 22.188 12.68v33.284h-52.548zM675.309-60.948v178.733h23.652v-178.733h-23.652zM740.537-60.948v178.733h24.261l93.877-140.329v140.329h22.678v-178.733h-24.264l-93.877 140.45v-140.45h-22.675z" />
<glyph unicode="&#xe91e;" glyph-name="burger" d="M0 760.889h1024v-56.889h-1024v56.889zM0 476.444h1024v-56.889h-1024v56.889zM0 192h1024v-56.889h-1024v56.889z" />
<glyph unicode="&#xe91f;" glyph-name="user-check" d="M121.575 609.684l-118.75 129.442 33.188 36.479 85.562-92.963 179.941 196.516 33.186-36.479-213.127-232.995zM426.698 952.922c27.758 4.657 56.258 7.078 85.302 7.078 282.77 0 512-229.23 512-512s-229.23-512-512-512c-282.77 0-512 229.23-512 512 0 39.066 4.38 77.142 12.687 113.753l52.559-11.927c-7.425-32.722-11.351-66.8-11.351-101.826 0-253.003 205.101-458.105 458.105-458.105 253.003 0 458.105 205.102 458.105 458.105 0 253.005-205.102 458.105-458.105 458.105-26.045 0-51.561-2.171-76.382-6.335l-8.92 53.152zM790.546 199.052c-68.856-78.961-166.909-128.315-275.72-128.315-102.077 0-194.681 43.434-262.6 114.001 43.644 77.315 189.518 117.447 273.883 117.447 79.031 0 211.99-35.185 264.437-103.133zM675.549 482.856c0-79.395-67.204-144.384-149.38-144.384-82.181 0-149.385 64.989-149.385 144.384 0 79.419 67.204 144.381 149.385 144.381 82.176 0 149.38-64.962 149.38-144.381z" />
<glyph unicode="&#xe920;" glyph-name="close" d="M512.001 305.899l-365.715-365.718-137.92 137.923 365.714 365.715-374.080 374.080 137.92 137.92 374.080-374.081 374.077 374.081 137.923-137.92-374.080-374.080 365.718-365.715-137.923-137.923-365.715 365.718z" />
<glyph unicode="&#xe921;" glyph-name="whatsapp" d="M1023.999 461.186c0-275.487-225.044-498.813-502.684-498.813-88.143 0-170.931 22.542-243.005 62.083l-278.311-88.457 90.742 267.633c-45.784 75.153-72.132 163.314-72.132 257.553 0 275.485 225.083 498.813 502.706 498.813 277.66 0 502.684-223.327 502.684-498.813zM521.316 880.569c-233.079 0-422.657-188.124-422.657-419.382 0-91.776 29.932-176.756 80.542-245.871l-52.834-155.756 162.423 51.632c66.756-43.818 146.668-69.35 232.527-69.35 233.037 0 422.635 188.086 422.635 419.344 0 231.239-189.599 419.382-422.635 419.382zM775.148 346.32c-3.092 5.077-11.303 8.146-23.632 14.259-12.308 6.115-72.92 35.712-84.184 39.754-11.284 4.105-19.533 6.252-27.724-6.056-8.212-12.111-31.824-39.655-39.032-47.86-7.188-8.204-14.376-9.182-26.704-3.126-12.308 6.056-51.988 19.145-99.052 60.754-36.628 32.429-61.38 72.477-68.568 84.725-7.188 12.211-0.788 18.813 5.396 24.909 5.552 5.47 12.328 14.259 18.511 21.41 6.164 7.168 8.212 12.269 12.288 20.434 4.136 8.204 2.068 15.315-1.024 21.45-3.072 6.113-27.767 66.281-38.007 90.761-10.24 24.458-20.479 20.375-27.708 20.375-7.225 0-15.556 1.035-23.629 1.035-8.272 0-21.663-3.086-32.888-15.315-11.421-12.269-43.126-41.808-43.126-101.976s44.11-118.323 50.214-126.47c6.107-8.206 85.132-135.694 210.511-184.61 125.244-48.956 125.244-32.623 147.888-30.592 22.451 2.031 72.863 29.557 83.103 58.098 10.24 28.521 10.24 53.057 7.148 58.158z" />
<glyph unicode="&#xe922;" glyph-name="help" d="M512 960c-281.6 0-512-230.4-512-512s230.4-512 512-512 512 230.4 512 512-230.4 512-512 512zM512-12.8c-256 0-460.8 204.8-460.8 460.8s204.8 460.8 460.8 460.8 460.8-204.8 460.8-460.8-204.8-460.8-460.8-460.8zM512 299.52h56.32v-56.32h-56.32v56.32zM542.72 652.8c-40.96 0-71.68-10.24-92.16-30.72s-35.84-46.080-40.96-87.040l51.2-5.12c5.12 25.6 15.36 51.2 25.6 61.44s30.72 20.48 51.2 20.48c20.48 0 40.96-5.12 56.32-20.48s20.48-30.72 20.48-51.2c0-10.24-5.12-20.48-10.24-30.72s-15.36-20.48-35.84-35.84c-15.36-15.36-30.72-25.6-35.84-35.84-10.24-10.24-15.36-20.48-20.48-30.72-5.12-15.36-10.24-30.72-10.24-51.2 0-5.12 0-10.24 0-15.36h61.44c0 20.48 0 35.84 5.12 40.96s5.12 15.36 10.24 25.6 15.36 15.36 30.72 30.72c25.6 20.48 40.96 40.96 46.080 56.32s10.24 30.72 10.24 51.2c0 30.72-10.24 56.32-35.84 76.8s-51.2 30.72-87.040 30.72z" />
<glyph unicode="&#xe923;" glyph-name="clear" d="M512 960c-284.444 0-512-227.556-512-512s227.556-512 512-512 512 227.556 512 512-227.556 512-512 512zM512-7.111c-250.311 0-455.111 204.8-455.111 455.111s204.8 455.111 455.111 455.111 455.111-204.8 455.111-455.111-204.8-455.111-455.111-455.111zM694.044 675.556l-182.044-182.044-182.044 182.044-45.511-45.511 182.044-182.044-182.044-182.044 45.511-45.511 182.044 182.044 182.044-182.044 45.511 45.511-182.044 182.044 182.044 182.044z" />
<glyph unicode="&#xe924;" glyph-name="help-bg" d="M512 960c-281.6 0-512-230.4-512-512s230.4-512 512-512 512 230.4 512 512-230.4 512-512 512zM568.32 243.2h-56.32v56.32h56.32v-56.32zM655.36 494.080c-10.24-15.36-25.6-30.72-46.080-56.32-15.36-15.36-25.6-25.6-30.72-30.72s-10.24-15.36-10.24-25.6-5.12-20.48-5.12-40.96h-46.080c0 5.12 0 10.24 0 15.36 0 20.48 5.12 35.84 10.24 51.2 5.12 10.24 10.24 20.48 20.48 30.72 5.12 10.24 20.48 20.48 35.84 35.84s30.72 25.6 35.84 35.84 10.24 20.48 10.24 30.72c0 20.48-5.12 35.84-20.48 51.2s-35.84 20.48-56.32 20.48c-20.48 0-40.96-5.12-51.2-20.48s-35.84-30.72-40.96-61.44l-51.2 5.12c5.12 40.96 20.48 66.56 40.96 87.040s51.2 30.72 92.16 30.72c40.96 0 71.68-10.24 92.16-30.72s35.84-46.080 35.84-76.8c0-20.48-5.12-35.84-15.36-51.2z" />
<glyph unicode="&#xe925;" glyph-name="room-check" d="M179.664 696.398v-675.716l-0.137-0.868c-0.366-2.331 0.556-17.58 19.281-35.928 18.369-18.001 34.677-24.081 39.771-25.161l352.758-0.083c5.176-0.636 24.081 1.152 42.229 18.937 17.983 17.62 19.9 37.015 19.225 42.64l-0.081 0.669v116.253h22.544v-114.974c1.222-12.548-3.157-38.392-25.909-60.688-22.566-22.116-47.703-26.505-59.989-25.297l-353.454 0.127c-9.804 1.477-30.973 10.017-52.872 31.476-21.821 21.383-27.245 42.915-25.909 54.521v674.204c0.28 43.887 13.955 109.421 54.37 164.294 40.823 55.427 108.412 99.196 214.352 99.196 105.464 0 168.783-38.433 205.153-92.064 35.827-52.829 44.261-118.616 44.261-171.498v-0.602l-0.063-0.602c-0.774-7.198-4.277-17.091-12.161-25.319-8.199-8.555-20.569-14.708-37.666-14.708-34.996 0-49.908 25.146-52.855 38.864l-0.252 1.17v1.197c0 28.232-4.892 64.079-25.118 92.626-19.717 27.826-55.384 50.63-121.298 50.63-66.136 0-101.916-21.779-121.614-48.955-20.193-27.859-25.12-63.578-24.803-94.184 0.433-41.612 8.188-77.915 29.323-103.75 20.746-25.357 56.206-42.775 117.094-42.775h164.125c11.854 0 40.81-3.946 59.379-22.143 17.749-17.392 24.526-40.626 25.819-50.776l0.090-0.71v-80.002h-22.544v78.503c-1.089 7.123-6.4 24.394-19.144 36.882-12.323 12.077-33.999 15.702-43.601 15.702h-164.125c-65.262 0-108.203 18.849-134.542 51.044-25.95 31.719-33.964 74.258-34.417 117.79-0.338 32.468 4.71 74.013 29.091 107.649 24.876 34.319 68.268 58.268 139.868 58.268 71.823 0 114.999-25.29 139.693-60.14 23.815-33.613 29.109-74.291 29.263-104.28 1.905-6.693 9.996-20.066 30.568-20.066 11.225 0 17.627 3.835 21.388 7.761 3.843 4.010 5.527 8.761 5.959 11.628-0.077 51.037-8.445 111.060-40.374 158.141-31.532 46.496-87.283 82.173-186.495 82.173-98.732 0-159.6-40.327-196.2-90.022-36.998-50.233-49.714-110.822-49.978-151.033zM443.241 328.024l-72.14-74.425 177.464-184.092 318.504 331.368-72.141 74.425-246.363-256.943-105.324 109.667zM795.015 442.818l-246.437-257.022-105.411 109.759-40.71-41.999 146.083-151.541 287.197 298.794-40.721 42.009z" />
<glyph unicode="&#xe926;" glyph-name="room-choose" d="M197.534 742.548v-557.423l-0.113-0.716c-0.302-1.923 0.459-14.502 15.906-29.639 15.153-14.85 28.606-19.866 32.809-20.757h239.504v-18.598l-241.713 0.104c-8.088 1.218-25.551 8.262-43.616 25.966-18.001 17.64-22.476 35.402-21.373 44.976v556.176c0.231 36.204 11.513 90.266 44.852 135.533 33.676 45.724 89.433 81.83 176.827 81.83 87 0 139.235-31.704 169.238-75.947 29.555-43.581 36.512-97.851 36.512-141.475v-0.496l-0.052-0.496c-0.638-5.939-3.528-14.098-10.031-20.887-6.764-7.057-16.968-12.133-31.073-12.133-28.869 0-41.171 20.744-43.602 32.060l-0.208 0.965v0.988c0 23.289-4.036 52.861-20.721 76.411-16.266 22.956-45.689 41.767-100.063 41.767-54.557 0-84.075-17.966-100.324-40.385-16.658-22.981-20.723-52.448-20.46-77.696 0.357-34.327 6.754-64.274 24.189-85.587 17.114-20.919 46.366-35.286 96.595-35.286h135.393c9.779 0 33.665-3.255 48.984-18.266 14.641-14.347 20.232-33.515 21.3-41.887l0.074-0.586v-214.776h-18.598v213.539c-0.898 5.876-5.279 20.124-15.793 30.425-10.165 9.963-28.047 12.953-35.968 12.953h-135.393c-53.837 0-89.261 15.55-110.989 42.109-21.407 26.167-28.019 61.258-28.392 97.17-0.279 26.784 3.886 61.055 23.999 88.803 20.521 28.312 56.317 48.068 115.382 48.068 59.249 0 94.867-20.863 115.238-49.613 19.646-27.729 24.013-61.286 24.14-86.024 1.571-5.522 8.246-16.553 25.217-16.553 9.259 0 14.542 3.163 17.644 6.403 3.171 3.308 4.56 7.227 4.915 9.593-0.063 42.102-6.967 91.618-33.306 130.456-26.012 38.357-72.004 67.788-153.847 67.788-81.448 0-131.661-33.268-161.853-74.262-30.521-41.44-41.011-91.421-41.229-124.593zM437.857 311.203c-0.77-6.628 1.047-12.87 2.797-15.759l0.022-0.038 150.511-251.3c2.639-4.406 1.205-10.116-3.201-12.754s-10.116-1.207-12.754 3.199l-150.499 251.278c-3.987 6.597-6.57 17.004-5.351 27.515 1.272 10.956 6.792 22.656 19.698 30.108 15.487 8.94 28.947 8.996 39.822 4.188 9.71-4.566 16.805-12.791 20.248-17.532 0.19-0.26 0.364-0.532 0.526-0.811l98.384-170.406-16.102-9.308-98.146 169.995c-3.039 4.181-6.624 8.75-12.43 11.050-4.821 2.132-12.037 3.050-23.005-3.284-6.937-4.004-9.804-9.948-10.522-16.143zM590.015 154.234l-8.055-4.649c2.568-4.447 8.255-5.972 12.704-3.403 4.447 2.568 5.964 8.265 3.398 12.711l-8.047-4.659zM543.249 281.903c-2.46 4.508-0.801 10.158 3.705 12.618 10.442 5.702 21.677 6.587 32.46 1.605 10.271-4.747 19.023-14.3 26.438-27.139l45.723-79.199-16.1-9.306-45.731 79.207c-6.444 11.162-12.743 17.067-18.131 19.555-4.875 2.252-9.903 2.146-15.747-1.046-4.507-2.46-10.156-0.801-12.618 3.705zM605.789 298.553c-2.568 4.449-1.043 10.136 3.403 12.702 14.037 8.105 26.587 7.409 36.207 3.336 8.825-3.984 15.157-10.778 16.994-13.169 1.98-2.617 4.435-6.83 6.163-10 0.873-1.601 1.655-3.097 2.193-4.139 0.274-0.53 0.5-0.976 0.651-1.272l0.114-0.227 36.583-63.361-16.1-9.308-36.722 63.605c-0.095 0.164-0.186 0.331-0.27 0.5l-49.216 21.334zM655.005 277.22l-0.009 0.018-0.038 0.072-0.153 0.303c-0.139 0.276-0.333 0.656-0.584 1.144-0.512 0.992-1.198 2.301-1.997 3.768-1.614 2.968-3.318 5.955-4.595 7.589-1.417 1.861-4.247 5.382-9.481 7.35-4.437 1.878-10.846 2.771-19.657-2.316-4.447-2.568-10.134-1.043-12.702 3.403l49.216-21.334zM700.050 217.763l-8.053-4.648c2.566-4.449 8.253-5.973 12.702-3.405 4.447 2.568 5.966 8.265 3.398 12.713l-8.047-4.66zM678.298 300.065c-2.566 4.447-1.043 10.134 3.405 12.702 4.713 2.721 10.093 3.16 14.706 2.76 4.399-0.417 9.71-1.838 14.1-3.65 8.657-3.619 17.943-10.028 22.657-18.192 3.238-5.613 28.331-46.161 52.668-85.395 12.168-19.617 24.13-38.876 33.051-53.231l14.792-23.797c0 0 0.004-0.007-7.892-4.917l7.892 4.917c0.245-0.395 0.465-0.813 0.649-1.241 15.81-36.716 26.721-123.668-59.008-173.162-37.617-21.718-66.083-23.893-91.904-18.127-12.376 2.794-24.097 7.38-35.317 11.934-0.896 0.364-1.791 0.729-2.685 1.093-10.121 4.119-20.035 8.153-30.749 11.144-44.237 7.113-95.19-2.599-115.597-8.401-0.952-0.27-1.942-0.386-2.931-0.344-6.1 0.256-16.751 0.878-26.449 4.276-10.214 3.692-20.759 11.171-24.283 25.733-7.104 29.345 6.468 48.136 18.339 55.096 26.667 16.842 57.293 19.823 87.43 18.378 5.129-0.245 9.088-4.603 8.843-9.734-0.245-5.129-4.605-9.088-9.734-8.841-28.674 1.374-54.782-1.69-76.735-15.607-0.108-0.067-0.218-0.134-0.33-0.199-4.925-2.844-14.895-13.422-9.739-34.72 1.585-6.545 6.011-10.262 12.531-12.618 6.473-2.442 13.636-2.871 19.444-3.122 22.283 6.076 76.179 15.723 122.681 8.38 0.339-0.054 0.675-0.126 1.006-0.22 12.146-3.383 23.323-7.928 33.842-12.204 0.707-0.288 1.412-0.575 2.112-0.859 11.129-4.519 21.395-8.592 32.375-11.016 20.889-4.666 44.617-3.511 78.552 16.082 73.504 42.437 65.322 116.269 51.491 149.077l-14.423 23.202c-8.922 14.358-20.887 33.623-33.059 53.244-24.342 39.243-49.586 80.042-52.971 85.9-1.908 3.304-7.104 7.566-13.723 10.333-3.247 1.38-5.773 2.081-8.527 2.282-2.537 0.218-3.625-0.233-3.809-0.339-4.449-2.568-10.136-1.046-12.704 3.403zM648.178 177.077c-4.447-2.566-10.136-1.043-12.702 3.405l16.1 9.306c2.568-4.447 1.049-10.143-3.398-12.711z" />
<glyph unicode="&#xe927;" glyph-name="discount" d="M269.648 101.371c-58.867 0-109.821 9.495-152.864 28.484s-81.971 44.625-116.785 76.907l105.391 123.431c27.218-22.787 53.803-40.509 79.755-53.17s53.17-18.989 81.654-18.989c30.383 0 54.119 6.964 71.21 20.888 17.723 13.925 26.585 32.914 26.585 56.968v1.899c0 24.054-9.178 42.726-27.535 56.019-17.723 13.925-41.144 20.888-70.261 20.888-20.255 0-39.245-3.166-56.968-9.495-17.091-6.329-33.548-14.242-49.372-23.737l-109.189 60.766 18.989 337.061h444.351v-151.915h-299.082l-5.697-100.643c15.191 6.963 31.016 12.66 47.473 17.091 17.091 4.431 36.713 6.646 58.867 6.646 29.75 0 58.235-4.431 85.452-13.293 27.852-8.229 52.221-20.888 73.109-37.979s37.661-38.928 50.322-65.513c12.661-26.585 18.989-57.917 18.989-93.997v-1.899c0-37.347-6.964-70.578-20.888-99.694-13.293-29.116-31.964-53.802-56.019-74.059s-52.853-35.762-86.401-46.524c-33.548-10.762-70.577-16.141-111.087-16.141zM940.191 425.979c8.034 0 15.338 1.826 21.911 5.478 6.938 4.017 12.781 9.312 17.529 15.885 5.113 6.573 8.947 14.242 11.503 23.006 2.921 9.129 4.382 18.807 4.382 29.032v1.096c0 10.59-1.461 20.45-4.382 29.58s-7.121 16.981-12.599 23.554c-5.113 6.573-11.138 11.686-18.076 15.338-6.573 4.017-13.694 6.025-21.363 6.025-8.034 0-15.52-2.008-22.459-6.025-6.573-3.652-12.416-8.947-17.529-15.885-4.747-6.573-8.582-14.425-11.503-23.554-2.556-8.764-3.834-18.076-3.834-27.936v-1.096c0-10.955 1.461-20.998 4.382-30.127s6.938-16.981 12.051-23.554c5.478-6.573 11.503-11.686 18.076-15.338 6.938-3.652 14.242-5.478 21.911-5.478zM717.796 622.080c8.034 0 15.338 1.826 21.911 5.478 6.938 4.017 12.781 9.312 17.529 15.885 5.113 6.573 8.947 14.242 11.503 23.006 2.921 9.129 4.382 18.807 4.382 29.032v1.096c0 10.59-1.461 20.45-4.382 29.58s-7.121 16.981-12.599 23.554c-5.113 6.573-11.138 11.686-18.076 15.338-6.573 4.017-13.694 6.025-21.363 6.025-8.034 0-15.52-2.008-22.459-6.025-6.573-3.652-12.416-8.947-17.529-15.885-4.747-6.573-8.582-14.425-11.503-23.554-2.556-8.764-3.834-18.076-3.834-27.936v-1.096c0-10.955 1.461-20.998 4.382-30.127s6.938-16.981 12.051-23.554c5.478-6.573 11.503-11.686 18.076-15.338 6.938-3.652 14.242-5.478 21.911-5.478zM939.095 402.425c-12.781 0-24.284 2.556-34.509 7.669-10.225 5.478-18.989 12.599-26.293 21.363-7.304 9.129-12.964 19.537-16.981 31.223s-6.025 23.919-6.025 36.701v1.096c0 12.781 2.008 25.015 6.025 36.701 4.017 12.051 9.677 22.459 16.981 31.223 7.669 9.129 16.616 16.433 26.841 21.911 10.59 5.478 22.276 8.217 35.057 8.217 12.416 0 23.737-2.739 33.962-8.217 10.59-5.113 19.537-12.234 26.841-21.363s12.964-19.537 16.981-31.223c4.017-11.686 6.025-23.737 6.025-36.153v-1.096c0-12.781-2.008-25.197-6.025-37.248-4.017-11.686-9.86-22.093-17.529-31.223-7.304-9.129-16.25-16.433-26.841-21.911-10.225-5.113-21.728-7.669-34.509-7.669zM954.433 790.246h29.58l-281.554-383.439h-29.58l281.554 383.439zM716.701 598.526c-12.781 0-24.284 2.556-34.509 7.669-10.225 5.478-18.989 12.599-26.293 21.363-7.304 9.129-12.964 19.537-16.981 31.223s-6.025 23.919-6.025 36.701v1.096c0 12.781 2.008 25.015 6.025 36.701 4.017 12.051 9.677 22.459 16.981 31.223 7.669 9.129 16.616 16.433 26.841 21.911 10.59 5.478 22.276 8.217 35.057 8.217 12.416 0 23.737-2.739 33.962-8.217 10.59-5.113 19.537-12.234 26.841-21.363s12.964-19.537 16.981-31.223c4.017-11.686 6.025-23.737 6.025-36.153v-1.096c0-12.781-2.008-25.197-6.025-37.248-4.017-11.686-9.86-22.093-17.529-31.223-7.304-9.129-16.25-16.433-26.841-21.911-10.225-5.113-21.728-7.669-34.509-7.669z" />
<glyph unicode="&#xe928;" glyph-name="mail" d="M945.231 822.154h-866.462c-43.323 0-78.769-35.446-78.769-78.769v-590.77c0-43.323 35.446-78.769 78.769-78.769h866.462c43.323 0 78.769 35.446 78.769 78.769v590.77c0 43.323-35.446 78.769-78.769 78.769zM945.231 782.769c0 0 3.938 0 3.938 0l-437.17-330.831-456.862 322.954c7.877 3.938 15.754 7.877 23.631 7.877h866.462zM984.615 152.615c0-23.631-15.754-39.385-39.385-39.385h-866.462c-23.631 0-39.385 15.754-39.385 39.385v586.832l460.8-326.892c7.877-3.938 15.754-3.938 23.631 0l456.862 342.646c3.938-3.938 3.938-7.877 3.938-11.815v-590.77zM255.999 231.384h-118.154c-11.815 0-19.692-7.877-19.692-19.692s7.877-19.692 19.692-19.692h118.154c11.815 0 19.692 7.877 19.692 19.692s-7.877 19.692-19.692 19.692zM413.538 310.153h-275.692c-11.815 0-19.692-7.877-19.692-19.692s7.877-19.692 19.692-19.692h275.692c11.815 0 19.692 7.877 19.692 19.692s-7.877 19.692-19.692 19.692z" />
<glyph unicode="&#xe929;" glyph-name="passbook" d="M1024 178.725v542.341c0 91.022-64.474 163.081-151.704 163.081h-720.593c-83.437 0-151.704-75.852-151.704-163.081v-546.133c0-91.022 64.474-163.081 151.704-163.081h720.593c83.437 0 151.704 75.852 151.704 166.874 0-3.793 0-3.793 0 0zM37.926 721.066c0 68.267 53.096 125.156 113.778 125.156h720.593c64.474 0 113.778-53.096 113.778-125.156v-64.474h-341.333v-18.963c0-15.17-7.585-30.341-22.756-37.926-18.963-11.378-41.719-18.963-68.267-18.963s-53.096 7.585-72.059 18.963c-18.963 11.378-26.548 26.548-26.548 37.926v18.963h-417.185v64.474zM37.926 618.666h383.052c7.585-22.756 22.756-41.719 41.719-53.096 26.548-15.17 56.889-22.756 91.022-22.756s64.474 7.585 87.23 26.548c18.963 11.378 34.133 30.341 37.926 53.096h307.2v-261.689l-79.644-49.304-87.23 53.096-87.23-53.096-87.23 53.096-87.23-53.096-87.23 53.096-87.23-53.096-87.23 53.096-87.23-53.096-91.022 53.096-79.644-56.889v310.993zM872.296 49.777h-720.593c-64.474 0-113.778 53.096-113.778 125.156v83.437l75.852 56.889 87.23-53.096 87.23 53.096 87.23-53.096 87.23 53.096 87.23-53.096 87.23 53.096 87.23-53.096 87.23 53.096 87.23-53.096 87.23 53.096v-140.326c0 0 0 0 0-3.793 0-68.267-53.096-121.363-113.778-121.363z" />
<glyph unicode="&#xe92a;" glyph-name="gift" d="M408.714 489.314h-371.826v185.913h950.223v-185.913h-371.826zM408.714 452.426c20.373 0 36.887 16.516 36.887 36.887s-16.515 36.887-36.887 36.887v-73.775zM36.888 489.314h-36.887v-36.887h36.887v36.887zM36.888 675.227v36.887h-36.887v-36.887h36.887zM987.11 675.227h36.887v36.887h-36.887v-36.887zM987.11 489.314v-36.887h36.887v36.887h-36.887zM615.284 526.201c-20.373 0-36.887-16.516-36.887-36.887s16.515-36.887 36.887-36.887v73.775zM408.714 526.201h-371.826v-73.775h371.826v73.775zM73.776 489.314v185.913h-73.775v-185.913h73.775zM36.888 638.339h950.223v73.775h-950.223v-73.775zM950.223 675.227v-185.913h73.775v185.913h-73.775zM987.11 526.201h-371.826v-73.775h371.826v73.775zM371.828 489.314h36.887v36.887h-36.887v-36.887zM78.202 489.314v36.887h-36.887v-36.887h36.887zM78.202-27.111h-36.887v-36.887h36.887v36.887zM371.828-27.111v-36.887h36.887v36.887h-36.887zM445.603-27.111h-36.887v-36.887h36.887v36.887zM578.397-27.111v-36.887h36.887v36.887h-36.887zM445.603 489.314v36.887h-36.887v-36.887h36.887zM578.397 489.314h36.887v36.887h-36.887v-36.887zM652.172-27.111h-36.887v-36.887h36.887v36.887zM945.796-27.111v-36.887h36.887v36.887h-36.887zM945.796 489.314h36.887v36.887h-36.887v-36.887zM652.172 489.314v36.887h-36.887v-36.887h36.887zM371.828 526.201h-293.625v-73.775h293.625v73.775zM41.315 489.314v-516.425h73.775v516.425h-73.775zM78.202-64h293.625v73.775h-293.625v-73.775zM408.715-27.111v516.425h-73.775v-516.425h73.775zM445.603-64h132.794v73.775h-132.794v-73.775zM408.715 489.314v-516.425h73.774v516.425h-73.774zM578.397 526.201h-132.794v-73.775h132.794v73.775zM615.284-27.111v516.425h-73.775v-516.425h73.775zM652.172-64h293.625v73.775h-293.625v-73.775zM982.685-27.111v516.425h-73.775v-516.425h73.775zM945.796 526.201h-293.625v-73.775h293.625v73.775zM615.284 489.314v-516.425h73.775v516.425h-73.775zM511.999 658.996c20.373 0 36.887 16.516 36.887 36.887s-16.515 36.887-36.887 36.887v-73.775zM511.999 695.884c0 36.887 0 36.887-0.001 36.887s-0.001 0-0.003 0-0.005 0-0.010 0-0.022 0-0.040 0c-0.036 0-0.090 0-0.161 0-0.143 0-0.356 0-0.638 0-0.565 0-1.404 0-2.504 0-2.202 0-5.449 0-9.63 0-8.363 0-20.464 0-35.418 0-29.906 0-71.22 0-116.851 0v-73.775c45.631 0 86.945 0 116.851 0 14.953 0 27.055 0 35.418 0 4.181 0 7.429 0 9.63 0 1.1 0 1.94 0 2.504 0 0.282 0 0.495 0 0.638 0 0.072 0 0.125 0 0.161 0 0.018 0 0.031 0 0.040 0 0.005 0 0.008 0 0.010 0 0.001 0 0.002 0 0.003 0s0.001 0 0.001 36.887zM346.743 732.771c-40.497-0.359-76.171 9.708-105.917 31.323-27.421 19.344-43.108 45.144-43.108 76.389h-73.775c0-60.039 31.638-106.538 74.357-136.673 40.394-27.863 97.677-44.454 148.443-44.813v73.775zM197.718 840.483c0 13.75 3.395 24.723 9.283 31.715 4.874 5.788 15.752 14.025 43.047 14.025v73.775c-43.786 0-77.515-14.196-99.48-40.282-20.951-24.881-26.624-55.222-26.624-79.234h73.775zM250.048 886.223c47.531 0 74.184-35.462 109.012-95.286 16.334-28.051 33.992-59.525 55.354-83.998 23.062-26.057 54.323-47.945 97.584-47.945v73.775c-14.959 0-27.693 6.516-42.339 23.064-16.344 18.133-30.105 43.466-46.843 72.221-31.315 53.79-77.416 131.942-172.77 131.942v-73.775zM511.999 732.771c-20.373 0-36.887-16.516-36.887-36.887s16.516-36.887 36.887-36.887v73.775zM511.999 695.884c0-36.887 0-36.887 0.001-36.887s0.001 0 0.003 0 0.006 0 0.010 0 0.022 0 0.040 0c0.036 0 0.090 0 0.161 0 0.143 0 0.356 0 0.638 0 0.564 0 1.404 0 2.504 0 2.202 0 5.449 0 9.63 0 8.363 0 20.464 0 35.418 0 29.906 0 71.22 0 116.851 0v73.775c-45.631 0-86.945 0-116.851 0-14.953 0-27.054 0-35.418 0-4.182 0-7.429 0-9.63 0-1.1 0-1.941 0-2.504 0-0.282 0-0.495 0-0.638 0-0.072 0-0.125 0-0.161 0-0.018 0-0.031 0-0.040 0-0.004 0-0.008 0-0.010 0s-0.002 0-0.003 0-0.001 0-0.001-36.887zM677.255 658.996c50.766 0.359 108.049 16.95 148.443 44.813 42.719 30.135 74.357 76.635 74.357 136.673h-73.775c0-31.244-15.687-57.045-43.108-76.389-29.747-21.615-65.42-31.682-105.917-31.323v-73.775zM900.056 840.483c0 24.012-5.674 54.352-26.624 79.234-21.965 26.086-55.695 40.282-99.48 40.282v-73.775c27.295 0 38.174-8.238 43.047-14.025 5.887-6.992 9.283-17.966 9.283-31.715h73.775zM773.951 959.998c-95.353 0-141.454-78.152-172.77-131.942-16.738-28.755-30.499-54.089-46.843-72.221-14.646-16.548-27.38-23.064-42.339-23.064v-73.775c43.263 0 74.523 21.888 97.584 47.945 21.362 24.472 39.020 55.945 55.354 83.998 34.828 59.824 61.482 95.286 109.012 95.286v73.775z" />
<glyph unicode="&#xe92b;" glyph-name="moon" d="M925.839 227.48c-36.865-23.393-77.902-41.68-122.372-53.595-232.845-62.39-471.579 73.539-533.226 303.605-19.368 72.284-18.952 145.261-2.049 213.296-134.303-100.395-201.385-274.491-155.794-444.642 59.981-223.85 292.262-356.104 518.816-295.399 144.139 38.621 251.23 146.044 294.625 276.735zM577.151 890.278c0-38.507-6.243-69.722-13.945-69.722s-13.945 31.216-13.945 69.722c0 38.507 6.243 69.722 13.945 69.722s13.945-31.216 13.945-69.722zM563.207 876.334c-38.507 0-69.722 6.243-69.722 13.945s31.216 13.945 69.722 13.945c38.507 0 69.722-6.243 69.722-13.945s-31.216-13.945-69.722-13.945zM660.818 583.499c0-38.507-6.243-69.722-13.945-69.722s-13.945 31.216-13.945 69.722c0 38.507 6.243 69.722 13.945 69.722s13.945-31.216 13.945-69.722zM646.874 569.555c-38.507 0-69.722 6.243-69.722 13.945s31.216 13.945 69.722 13.945c38.507 0 69.722-6.243 69.722-13.945s-31.216-13.945-69.722-13.945z" />
<glyph unicode="&#xe92c;" glyph-name="ok" d="M512-54.464c282.767 0 512 224.963 512 502.465s-229.233 502.463-512 502.463c-282.77 0-512-224.96-512-502.463s229.23-502.465 512-502.465zM444.049 280.492l-170.987 168.949 47.787 47.613 123.2-121.335 259.096 256.496 47.785-47.613-306.881-304.109z" />
<glyph unicode="&#xe92d;" glyph-name="ko" d="M1024 448.024c0-277.5-229.228-502.498-512-502.498-282.775 0-512 224.998-512 502.498s229.225 502.45 512 502.45c282.772 0 512-224.95 512-502.45zM392.538 280.522l127.997 125.604 128-125.604 48.276 47.35-128 125.652 130.924 128.5-48.271 47.35-130.929-128.5-130.922 128.5-48.275-47.35 130.925-128.5-128-125.652 48.275-47.35z" />
<glyph unicode="&#xe92e;" glyph-name="speed" horiz-adv-x="585" d="M88.052 948.896c-14.065 14.496-37.218 14.845-51.714 0.779s-14.845-37.218-0.779-51.714l52.493 50.935zM523.121 448l26.247-25.468c13.765 14.19 13.765 36.747 0 50.937l-26.247-25.468zM35.559-1.96c-14.065-14.497-13.717-37.65 0.779-51.716s37.649-13.714 51.714 0.779l-52.493 50.937zM35.559 897.961l461.315-475.429 52.495 50.937-461.316 475.428-52.493-50.935zM496.874 473.468l-461.315-475.429 52.493-50.937 461.316 475.429-52.495 50.937z" />
<glyph unicode="&#xe92f;" glyph-name="autocomplete" d="M161.684 448c0-44.648-36.194-80.842-80.842-80.842s-80.842 36.194-80.842 80.842c0 44.648 36.194 80.842 80.842 80.842s80.842-36.194 80.842-80.842zM592.842 448c0-44.648-36.194-80.842-80.842-80.842s-80.842 36.194-80.842 80.842c0 44.648 36.194 80.842 80.842 80.842s80.842-36.194 80.842-80.842zM1024 448c0-44.648-36.194-80.842-80.842-80.842s-80.842 36.194-80.842 80.842c0 44.648 36.194 80.842 80.842 80.842s80.842-36.194 80.842-80.842z" />
<glyph unicode="&#xe930;" glyph-name="share" d="M1023.998 223.419v516.655c0 13.964-9.309 23.272-23.272 23.272s-23.272-9.309-23.272-23.272v-516.655c0 0 0 0 0 0 0-69.818-55.855-125.673-116.364-125.673h-698.182c-65.163 0-116.364 51.2-116.364 125.673v516.655c0 13.964-9.309 23.272-23.272 23.272s-23.272-9.309-23.272-23.272v-516.655c0-97.746 65.163-172.218 162.909-172.218h698.182c93.091 0 162.909 79.127 162.909 172.218 0 0 0 0 0 0zM367.707 614.4l144.291 148.945v-456.146c0-13.964 9.309-23.272 23.272-23.272s23.272 9.309 23.272 23.272v456.146l144.291-144.291c9.309-9.309 23.272-9.309 32.582 0s9.309 23.272 0 32.582l-186.182 186.182c-9.309 9.309-23.272 9.309-32.582 0l-186.182-186.182c-4.655-9.309-4.655-27.927 0-37.236 9.309-4.655 27.927-4.655 37.236 0z" />
<glyph unicode="&#xe931;" glyph-name="print" d="M787.691 704.001h-39.384v118.154h-472.615v-118.154h-39.384c-129.969 0-236.308-106.339-236.308-236.308s106.339-236.308 236.308-236.308v-157.539h551.384v157.539c129.969 0 236.308 106.339 236.308 236.308s-106.339 236.308-236.308 236.308zM315.076 782.77h393.846v-78.769h-393.846v78.769zM748.306 113.232h-472.615v196.923h472.615v-196.923zM787.691 270.77v39.384h39.384v39.384h-630.154v-39.384h39.384v-39.384c-110.277 0-196.923 86.646-196.923 196.923s86.646 196.923 196.923 196.923h551.384c110.277 0 196.923-86.646 196.923-196.923s-86.646-196.923-196.923-196.923zM244.183 451.94c0-15.226-12.343-27.569-27.569-27.569s-27.569 12.343-27.569 27.569c0 15.226 12.343 27.569 27.569 27.569s27.569-12.343 27.569-27.569zM370.214 451.94c0-15.226-12.343-27.569-27.569-27.569s-27.569 12.343-27.569 27.569c0 15.226 12.343 27.569 27.569 27.569s27.569-12.343 27.569-27.569z" />
<glyph unicode="&#xe932;" glyph-name="download" d="M23.191 763.485c12.809 0 23.193-10.384 23.193-23.193v-515.168c0-73.122 50.57-125.079 117.734-125.079h695.783c62.11 0 116.33 54.8 117.685 122.486-0.092 0.849-0.144 1.716-0.144 2.593v515.168c0 12.809 10.386 23.193 23.193 23.193 12.812 0 23.193-10.384 23.193-23.193v-512.348c0.112-0.923 0.172-1.864 0.172-2.82 0-92.159-73.308-171.465-164.098-171.465h-695.783c-95.101 0-164.119 75.108-164.119 171.465v515.168c0 12.809 10.384 23.193 23.193 23.193zM737.231 478.049c9.058 9.058 9.058 23.742 0 32.799s-23.742 9.058-32.8 0l32.8-32.799zM535.288 308.906l-16.4-16.4c9.058-9.058 23.742-9.058 32.799 0l-16.4 16.4zM366.146 510.848c-9.058 9.058-23.742 9.058-32.799 0s-9.058-23.742 0-32.799l32.799 32.799zM558.482 819.148c0 12.807-10.384 23.193-23.193 23.193s-23.193-10.386-23.193-23.193h46.385zM704.431 510.848l-185.542-185.542 32.799-32.8 185.542 185.542-32.8 32.799zM551.688 325.305l-185.542 185.542-32.799-32.799 185.542-185.542 32.799 32.8zM558.482 308.906v510.242h-46.385v-510.242h46.385z" />
<glyph unicode="&#xe933;" glyph-name="input-clear" d="M512-64c-283.106 0-512 228.894-512 512s228.894 512 512 512c283.106 0 512-228.894 512-512s-228.894-512-512-512zM512 939.922c-271.059 0-491.922-220.863-491.922-491.922s220.863-491.922 491.922-491.922 491.922 220.863 491.922 491.922-220.863 491.922-491.922 491.922zM707.925 658.128l14.197-14.197-407.467-407.467-14.197 14.197 407.467 407.467zM316.075 658.128l407.467-407.467-14.197-14.197-407.467 407.467 14.197 14.197z" />
<glyph unicode="&#xe934;" glyph-name="courtyard" d="M512 686.934c-129.707 0-238.934-109.227-238.934-238.934s109.227-238.934 238.934-238.934 238.934 109.227 238.934 238.934-109.227 238.934-238.934 238.934zM512 277.333c-95.574 0-170.667 75.093-170.667 170.667s75.093 170.667 170.667 170.667 170.667-75.093 170.667-170.667-75.093-170.667-170.667-170.667zM477.867 960.001h68.267v-204.8h-68.267v204.8zM477.867 140.8h68.267v-204.8h-68.267v204.8zM819.2 482.133h204.8v-68.267h-204.8v68.267zM-0.001 482.133h204.8v-68.267h-204.8v68.267zM749.546 746.926l144.814 144.814 48.271-48.271-144.814-144.814-48.271 48.271zM66.865 64.225l144.814 144.814 48.271-48.271-144.814-144.814-48.271 48.271zM749.546 160.809l48.271 48.271 144.814-144.814-48.271-48.271-144.814 144.814zM66.886 843.476l48.271 48.271 144.814-144.814-48.271-48.271-144.814 144.814z" />
<glyph unicode="&#xe935;" glyph-name="poi" d="M480.109 55.053c-61.377 76.406-194.135 241.747-242.434 302.482-46.174 58.065-73.703 131.159-73.703 210.573 0 188.978 155.805 342.173 348.024 342.173s348.024-153.195 348.024-342.173c0-79.414-27.528-152.508-73.702-210.573-48.301-60.736-181.058-226.076-242.435-302.482-19.574-24.366-31.888-39.69-31.888-39.69s-12.314 15.323-31.888 39.69zM511.997 15.364l38.753-31.143-38.753-48.221-38.753 48.221 38.753 31.143zM198.764 326.591c31.935-40.157 100.593-125.8 161.188-201.302 30.315-37.77 58.637-73.035 79.381-98.864l33.912-42.205 38.753 31.143 38.753-31.143 33.913 42.205c20.744 25.829 49.068 61.093 79.381 98.864 60.596 75.501 129.251 161.145 161.19 201.302 52.865 66.478 84.506 150.386 84.506 241.518 0 217.227-178.859 391.891-397.741 391.891-218.88 0-397.741-174.664-397.741-391.891 0-91.131 31.641-175.040 84.508-241.518zM511.997 486.219c47.284 0 84.142 37.449 84.142 81.883 0 44.437-36.861 81.89-84.142 81.89s-84.142-37.452-84.142-81.89c0-44.434 36.858-81.883 84.142-81.883zM645.858 568.103c0-72.683-59.915-131.6-133.86-131.6s-133.859 58.918-133.859 131.6c0 72.683 59.914 131.608 133.859 131.608s133.86-58.925 133.86-131.608z" />
<glyph unicode="&#xe936;" glyph-name="circle" d="M1024 448c0-282.667-229.333-512-512-512s-512 229.333-512 512 229.333 512 512 512 512-229.333 512-512z" />
<glyph unicode="&#xe937;" glyph-name="currency" d="M229.287 403.478l75.687 8.904-146.922 133.565-75.687-164.73c22.261 0 66.783 13.357 80.139 13.357 0-22.261 13.357-89.043 80.139-169.183 53.426-62.33 124.661-80.139 155.826-89.043v66.783c-17.809 4.452-44.522 13.357-102.4 66.783s-66.783 97.948-66.783 133.565zM794.712 492.522l-80.139-13.357 146.922-133.565 80.139 169.183c-22.261 0-66.783-13.357-80.139-13.357 0 22.261-13.357 89.043-80.139 169.183-53.426 62.33-124.661 80.139-155.826 89.043v-66.783c17.809-4.452 44.522-13.357 102.4-66.783 57.878-57.878 66.783-102.4 66.783-133.565zM349.494 514.783c124.661 0 222.609 97.948 222.609 222.609s-97.948 222.609-222.609 222.609-222.609-97.948-222.609-222.609 97.948-222.609 222.609-222.609zM215.93 741.842l4.452 26.713h26.713c8.904 26.713 26.713 48.974 48.974 66.783s48.974 26.713 75.687 26.713c22.261 0 44.522-4.452 57.878-17.809l-13.357-44.522c-8.904 13.357-22.261 17.809-44.522 17.809-31.165 0-53.426-17.809-66.783-48.974h84.591l-4.452-26.713h-89.043c0-4.452 0-13.357-4.452-22.261h89.043l-4.452-26.713h-84.591c0-13.357 4.452-26.713 17.809-35.617 8.904-8.904 17.809-13.357 31.165-13.357 22.261 0 40.070 4.452 53.426 17.809l-8.904-53.426c-13.357-4.452-31.165-8.904-44.522-8.904-31.165 0-53.426 8.904-71.235 26.713s-26.713 40.070-31.165 66.783h-22.261l4.452 26.713h17.809c0 4.452 0 13.357 4.452 22.261h-26.713zM625.529 238.748c0-4.452 0-13.357 4.452-17.809s8.904-8.904 17.809-13.357v62.33c-8.904-4.452-13.357-4.452-17.809-13.357s-4.452-13.357-4.452-17.809zM674.503 149.705v-66.783c8.904 0 17.809 4.452 22.261 13.357 4.452 4.452 8.904 13.357 8.904 22.261s-4.452 13.357-8.904 17.809c-4.452 8.904-13.357 8.904-22.261 13.357zM665.599 381.217c-124.661 0-222.609-97.948-222.609-222.609s97.948-222.609 222.609-222.609c124.661 0 222.609 97.948 222.609 222.609 0 120.209-102.4 222.609-222.609 222.609zM727.929 69.566c-13.357-13.357-31.165-22.261-53.426-26.713v-31.165h-26.713v31.165c-22.261 4.452-35.617 8.904-48.974 22.261s-22.261 31.165-22.261 53.426l44.522 4.452c0-8.904 4.452-17.809 8.904-22.261 4.452-8.904 8.904-13.357 17.809-13.357v71.235c-22.261 4.452-40.070 17.809-48.974 31.165s-17.809 31.165-17.809 48.974c0 17.809 4.452 35.617 17.809 48.974s26.713 22.261 48.974 22.261v17.809h26.713v-17.809c17.809 0 31.165-8.904 44.522-17.809 8.904-8.904 17.809-22.261 22.261-40.070l-44.522-4.452c-4.452 13.357-8.904 22.261-22.261 26.713v-66.783c26.713-8.904 48.974-17.809 57.878-31.165s13.357-26.713 13.357-44.522c0-31.165-4.452-48.974-17.809-62.33z" />
<glyph unicode="&#xe938;" glyph-name="minus" d="M0 512h1024v-128h-1024v128z" />
<glyph unicode="&#xe939;" glyph-name="plus" d="M1024 512v-128h-448v-448h-128v448h-448v128h448v448h128v-448h448z" />
<glyph unicode="&#xe93a;" glyph-name="info" d="M512 960c-276.078 0-501.961-230.903-501.961-512s225.883-512 501.961-512c276.078 0 501.961 230.903 501.961 512s-225.883 512-501.961 512zM562.196 252.235h-50.196v286.118h50.196v-286.118zM562.196 593.569h-50.196v55.215h50.196v-55.215z" />
<glyph unicode="&#xe93b;" glyph-name="stairs-duplex" d="M642.683 785.538c0 24.629 19.966 44.595 44.595 44.595h292.128c24.634 0 44.595-19.966 44.595-44.595s-19.96-44.595-44.595-44.595h-247.533v-263.983c0-24.629-19.965-44.595-44.595-44.595h-305.96v-321.903c0-24.629-19.966-44.595-44.595-44.595h-292.129c-24.629 0-44.595 19.966-44.595 44.595s19.966 44.595 44.595 44.595h247.534v321.903c0 24.629 19.966 44.595 44.595 44.595h305.96v263.983z" />
<glyph unicode="&#xe93c;" glyph-name="lock" d="M768.722 561.246h-44.66v188.212c0 114.841-95.701 210.542-210.542 210.542s-210.542-95.701-210.542-210.542v-188.212h-51.040c-54.231 0-95.701-44.66-95.701-95.701v-290.293c0-133.981 108.461-239.252 239.252-239.252h216.922c140.361 0 255.202 114.841 255.202 255.202v271.153c3.19 54.231-44.66 98.891-98.891 98.891zM366.778 749.458c0 79.751 66.991 146.741 146.741 146.741s146.741-63.801 146.741-146.741v-188.212h-293.483v188.212zM807.002 188.013c0-105.271-86.131-191.402-191.402-191.402h-216.922c-98.891 0-175.452 79.751-175.452 175.452v290.293c0 19.14 15.95 31.9 31.9 31.9h516.785c19.14 0 35.090-15.95 35.090-35.090v-271.153zM513.519 427.265c-38.28 0-66.991-28.71-66.991-66.991v-114.841c0-38.28 28.71-66.991 66.991-66.991s66.991 28.71 66.991 66.991v114.841c0 38.28-28.71 66.991-66.991 66.991z" />
<glyph unicode="&#xe93d;" glyph-name="unlocked" d="M765.608 561.246h-47.85v188.212c0 114.841-95.701 210.542-210.542 210.542s-210.542-95.701-210.542-210.542v-44.66h63.801v44.66c0 79.751 66.991 146.741 146.741 146.741s146.741-66.991 146.741-146.741v-188.212h-401.944c-54.231 0-95.701-44.66-95.701-95.701v-290.293c0-133.981 108.461-239.252 239.252-239.252h216.922c140.361 0 255.202 114.841 255.202 255.202v271.153c0 54.231-44.66 98.891-102.081 98.891zM612.487-3.389h-216.922c-98.891 0-175.452 79.751-175.452 175.452v290.293c0 19.14 15.95 31.9 31.9 31.9h513.595c19.14 0 35.090-15.95 35.090-35.090v-274.343c3.19-105.271-82.941-188.212-188.212-188.212zM510.406 424.075c-38.28 0-66.991-28.71-66.991-66.991v-114.841c0-38.28 28.71-66.991 66.991-66.991s66.991 28.71 66.991 66.991v114.841c3.19 38.28-28.71 66.991-66.991 66.991z" />
<glyph unicode="&#xe93e;" glyph-name="apps" d="M0.001 704h256v256h-256v-256zM384.001-63.999h256v256h-256v-256zM0.001-63.999h256v256h-256v-256zM0.001 320.001h256v256h-256v-256zM384.001 320.001h256v256h-256v-256zM768 959.999v-256h256v256h-256zM384.001 704h256v256h-256v-256zM768 320.001h256v256h-256v-256zM768-63.999h256v256h-256v-256z" />
<glyph unicode="&#xe93f;" glyph-name="filter" d="M93.091 773.819h-93.091v-744.728c0-51.2 41.891-93.091 93.091-93.091h744.728v93.091h-744.728v744.728zM930.909 960h-651.636c-51.2 0-93.091-41.891-93.091-93.091v-651.636c0-51.2 41.891-93.091 93.091-93.091h651.636c51.2 0 93.091 41.891 93.091 93.091v651.636c0 51.2-41.891 93.091-93.091 93.091zM930.909 215.273h-651.636v651.636h651.636v-651.636z" />
<glyph unicode="&#xe940;" glyph-name="youtube-2" d="M628 249.143v-120.571c0-25.714-7.429-38.286-22.286-38.286-8.571 0-17.143 4-25.714 12.571v172c8.571 8.571 17.143 12.571 25.714 12.571 14.857 0 22.286-13.143 22.286-38.286zM821.143 248.571v-26.286h-51.429v26.286c0 25.714 8.571 38.857 25.714 38.857s25.714-13.143 25.714-38.857zM269.143 373.143h61.143v53.714h-178.286v-53.714h60v-325.143h57.143v325.143zM433.714 48h50.857v282.286h-50.857v-216c-11.429-16-22.286-24-32.571-24-6.857 0-10.857 4-12 12-0.571 1.714-0.571 8-0.571 20v208h-50.857v-223.429c0-20 1.714-33.143 4.571-41.714 4.571-14.286 16.571-21.143 33.143-21.143 18.286 0 37.714 11.429 58.286 34.857v-30.857zM678.857 132.571v112.571c0 26.286-1.143 45.143-5.143 56.571-6.286 21.143-20.571 32-40.571 32-18.857 0-36.571-10.286-53.143-30.857v124h-50.857v-378.857h50.857v27.429c17.143-21.143 34.857-31.429 53.143-31.429 20 0 34.286 10.857 40.571 31.429 4 12 5.143 30.857 5.143 57.143zM872 138.286v7.429h-52c0-20.571-0.571-32-1.143-34.857-2.857-13.714-10.286-20.571-22.857-20.571-17.714 0-26.286 13.143-26.286 39.429v49.714h102.286v58.857c0 30.286-5.143 52-15.429 66.286-14.857 19.429-34.857 29.143-60.571 29.143-26.286 0-46.286-9.714-61.143-29.143-10.857-14.286-16-36-16-66.286v-98.857c0-30.286 5.714-52.571 16.571-66.286 14.857-19.429 34.857-29.143 61.714-29.143s48 10.286 61.714 30.286c6.286 9.143 10.857 19.429 12 30.857 1.143 5.143 1.143 16.571 1.143 33.143zM524.572 660v120c0 26.286-7.429 39.429-24.571 39.429-16.571 0-24.571-13.143-24.571-39.429v-120c0-26.286 8-40 24.571-40 17.143 0 24.571 13.714 24.571 40zM935.429 230.857c0-65.714-0.571-136-14.857-200-10.857-45.143-47.429-78.286-91.429-82.857-105.143-12-211.429-12-317.143-12s-212 0-317.143 12c-44 4.571-81.143 37.714-91.429 82.857-14.857 64-14.857 134.286-14.857 200v0c0 66.286 0.571 136 14.857 200 10.857 45.143 47.429 78.286 92 83.429 104.571 11.429 210.857 11.429 316.571 11.429s212 0 317.143-11.429c44-5.143 81.143-38.286 91.429-83.429 14.857-64 14.857-133.714 14.857-200zM365.143 960h58.286l-69.143-228v-154.857h-57.143v154.857c-5.143 28-16.571 68-34.857 121.143-12.571 35.429-25.143 71.429-37.143 106.857h60.571l40.571-150.286zM576.572 769.714v-100c0-30.286-5.143-53.143-16-67.429-14.286-19.429-34.286-29.143-60.571-29.143-25.714 0-45.714 9.714-60 29.143-10.857 14.857-16 37.143-16 67.429v100c0 30.286 5.143 52.571 16 66.857 14.286 19.429 34.286 29.143 60 29.143 26.286 0 46.286-9.714 60.571-29.143 10.857-14.286 16-36.571 16-66.857zM768 862.286v-285.143h-52v31.429c-20.571-24-40-35.429-58.857-35.429-16.571 0-28.571 6.857-33.714 21.143-2.857 8.571-4.571 22.286-4.571 42.857v225.143h52v-209.714c0-12 0-18.857 0.571-20 1.143-8 5.143-12.571 12-12.571 10.286 0 21.143 8 32.571 24.571v217.714h52z" />
<glyph unicode="&#xe941;" glyph-name="instagram" d="M512 960c-139.093 0-156.459-0.64-211.072-3.072-54.528-2.56-91.648-11.136-124.288-23.808-33.664-13.056-62.251-30.592-90.709-59.051s-46.037-57.003-59.051-90.709c-12.672-32.64-21.291-69.76-23.808-124.288-2.56-54.613-3.072-71.979-3.072-211.072s0.64-156.459 3.072-211.072c2.56-54.485 11.136-91.648 23.808-124.288 13.056-33.621 30.592-62.251 59.051-90.709 28.459-28.416 57.003-46.037 90.709-59.051 32.683-12.629 69.803-21.291 124.288-23.808 54.613-2.56 71.979-3.072 211.072-3.072s156.459 0.64 211.072 3.072c54.485 2.56 91.648 11.179 124.288 23.808 33.621 13.056 62.251 30.635 90.709 59.051 28.416 28.459 46.037 56.96 59.051 90.709 12.629 32.64 21.291 69.803 23.808 124.288 2.56 54.613 3.072 71.979 3.072 211.072s-0.64 156.459-3.072 211.072c-2.56 54.485-11.179 91.691-23.808 124.288-13.056 33.664-30.635 62.251-59.051 90.709-28.459 28.459-56.96 46.037-90.709 59.051-32.64 12.672-69.803 21.291-124.288 23.808-54.613 2.56-71.979 3.072-211.072 3.072zM512 867.84c136.661 0 152.96-0.683 206.933-3.029 49.92-2.347 77.013-10.624 95.019-17.707 23.979-9.259 40.96-20.352 58.965-38.229 17.877-17.92 28.971-34.944 38.229-58.923 6.997-18.005 15.36-45.099 17.621-95.019 2.432-54.016 2.987-70.229 2.987-206.933s-0.64-152.96-3.157-206.933c-2.603-49.92-10.923-77.013-17.963-95.019-9.557-23.979-20.437-40.96-38.357-58.965-17.877-17.877-35.157-28.971-58.88-38.229-17.92-6.997-45.44-15.36-95.36-17.621-54.357-2.432-70.357-2.987-207.317-2.987-137.003 0-153.003 0.64-207.317 3.157-49.963 2.603-77.483 10.923-95.403 17.963-24.277 9.557-40.96 20.437-58.837 38.357-17.963 17.877-29.44 35.157-38.4 58.88-7.040 17.92-15.317 45.44-17.92 95.36-1.92 53.76-2.603 70.357-2.603 206.677 0 136.363 0.683 153.003 2.603 207.403 2.603 49.92 10.88 77.397 17.92 95.317 8.96 24.32 20.437 40.96 38.4 58.923 17.877 17.877 34.56 29.397 58.837 38.315 17.92 7.083 44.843 15.403 94.763 17.963 54.4 1.92 70.4 2.56 207.317 2.56l1.92-1.28zM512 710.912c-145.28 0-262.912-117.76-262.912-262.912 0-145.28 117.76-262.912 262.912-262.912 145.28 0 262.912 117.76 262.912 262.912 0 145.28-117.76 262.912-262.912 262.912zM512 277.333c-94.293 0-170.667 76.373-170.667 170.667s76.373 170.667 170.667 170.667 170.667-76.373 170.667-170.667-76.373-170.667-170.667-170.667zM846.763 721.28c0-33.92-27.563-61.44-61.44-61.44-33.92 0-61.44 27.563-61.44 61.44s27.563 61.397 61.44 61.397c33.835 0.043 61.44-27.52 61.44-61.397z" />
<glyph unicode="&#xe942;" glyph-name="facebook-2" d="M967.509 960h-911.019c-31.189 0-56.491-25.301-56.491-56.491v-911.019c0-31.232 25.301-56.491 56.491-56.491h490.411v396.544h-133.504v154.496h133.504v114.133c0 132.224 80.811 204.16 198.784 204.16 56.533 0 105.131-4.139 119.296-6.016v-138.24h-81.963c-64 0-76.459-30.763-76.459-75.563v-98.603h152.917l-19.84-154.88h-133.077v-396.032h260.907c31.275 0 56.533 25.259 56.533 56.491v911.019c0 31.189-25.259 56.491-56.491 56.491z" />
<glyph unicode="&#xe943;" glyph-name="youtube" d="M1002.439 695.232c-12.365 43.307-45.781 76.722-88.183 88.866l-0.905 0.222c-79.787 21.376-400.896 21.376-400.896 21.376s-320.299 0.427-400.896-21.376c-43.307-12.365-76.722-45.781-88.866-88.183l-0.222-0.905c-14.173-72.978-22.281-156.904-22.281-242.723 0-1.743 0.003-3.484 0.010-5.225l-0.001 0.268c-0.004-1.198-0.006-2.617-0.006-4.035 0-85.813 8.107-169.732 23.598-251.033l-1.32 8.327c12.365-43.307 45.781-76.722 88.183-88.866l0.905-0.222c79.701-21.419 400.896-21.419 400.896-21.419s320.256 0 400.896 21.419c43.307 12.365 76.722 45.781 88.866 88.183l0.222 0.905c13.59 71.472 21.364 153.686 21.364 237.715 0 3.173-0.011 6.344-0.033 9.513l0.003-0.486c0.024 2.951 0.037 6.439 0.037 9.929 0 84.041-7.776 166.267-22.648 245.996l1.278-8.245zM409.97 294.336v306.901l267.264-153.685z" />
<glyph unicode="&#xe944;" glyph-name="linkedin-2" d="M872.405 87.381h-151.637v237.611c0 56.661-1.152 129.579-79.019 129.579-79.061 0-91.136-61.653-91.136-125.397v-241.792h-151.637v488.619h145.664v-66.603h1.963c20.352 38.4 69.845 78.933 143.787 78.933 153.643 0 182.059-101.12 182.059-232.747v-268.203zM227.712 642.859c-48.811 0-88.021 39.509-88.021 88.107 0 48.555 39.253 88.021 88.021 88.021 48.64 0 88.064-39.467 88.064-88.021 0-48.597-39.467-88.107-88.064-88.107zM303.744 87.381h-152.064v488.619h152.064v-488.619zM948.267 960h-872.704c-41.771 0-75.563-33.024-75.563-73.771v-876.459c0-40.789 33.792-73.771 75.563-73.771h872.576c41.728 0 75.861 32.981 75.861 73.771v876.459c0 40.747-34.133 73.771-75.861 73.771h0.128z" />
<glyph unicode="&#xe945;" glyph-name="fullscreen" d="M146.287 301.714h-146.285v-365.714h365.714v146.285h-219.429v219.429zM0 594.284h146.285v219.429h219.429v146.285h-365.714v-365.714zM877.715 82.285h-219.429v-146.285h365.714v365.714h-146.285v-219.429zM658.286 960v-146.285h219.429v-219.429h146.285v365.714h-365.714z" />
<glyph unicode="&#xe946;" glyph-name="wordpress" d="M916.011 668.8c35.84-65.579 56.235-140.8 56.235-220.8 0-169.771-91.989-318.123-228.821-397.867l140.587 406.485c26.24 65.707 34.987 118.229 34.987 164.864 0 17.28-1.109 33.28-2.987 47.36zM575.488 664.363c27.605 1.28 52.565 4.48 52.565 4.48 24.832 3.2 21.931 39.68-2.859 38.357 0 0-74.88-5.76-122.88-5.76-45.397 0-121.6 6.4-121.6 6.4-24.96 1.28-28.203-36.48-3.2-37.76 0 0 23.040-2.603 48-3.84l71.68-196.48-101.12-302.080-167.637 497.92c27.691 1.28 52.651 4.267 52.651 4.267 24.96 3.2 22.016 39.68-2.773 38.229 0 0-74.496-5.888-122.624-5.888-8.533 0-18.688 0.341-29.44 0.64 83.285 122.752 225.109 205.312 385.749 205.312 119.851 0 228.907-45.739 310.869-120.875-1.963 0.128-3.883 0.384-6.016 0.384-45.227 0-77.312-39.381-77.312-81.664 0-37.973 21.888-70.101 45.227-107.989 17.536-30.72 37.973-70.101 37.973-127.019 0-39.040-15.104-85.077-35.029-148.437l-45.867-152.96-166.4 495.36 0.043-0.597zM512-12.117c-45.184 0-88.789 6.528-130.048 18.645l138.112 401.323 141.44-387.712c1.024-2.261 2.133-4.309 3.328-6.357-47.787-16.768-99.2-25.984-152.832-25.984zM51.669 448c0 66.731 14.336 130.133 39.893 187.307l219.477-601.557c-153.429 74.624-259.328 232.021-259.371 414.251zM512 960c-282.24 0-512-229.76-512-512s229.76-512 512-512 512 229.76 512 512-229.76 512-512 512z" />
<glyph unicode="&#xe947;" glyph-name="play-circle-outline" d="M409.6 217.6l307.2 230.4-307.2 230.4v-460.8zM512 960c-282.624 0-512-229.376-512-512s229.376-512 512-512 512 229.376 512 512-229.376 512-512 512zM512 38.401c-225.792 0-409.599 183.807-409.599 409.599s183.807 409.599 409.599 409.599 409.599-183.807 409.599-409.599-183.807-409.599-409.599-409.599z" />
<glyph unicode="&#xe948;" glyph-name="publish" d="M960.001-64v128h-896v-128h896zM960.001 576h-256.001v384h-384v-384h-256.001l448.001-448.001 448.001 448.001z" />
<glyph unicode="&#xe949;" glyph-name="share-social" d="M820.433 236.208c-39.069 0-74.024-15.422-100.755-39.582l-366.522 213.334c2.57 11.823 4.627 23.647 4.627 35.984s-2.057 24.16-4.627 35.984l362.41 211.277c27.759-25.702 64.257-41.639 104.867-41.639 85.334 0 154.217 68.883 154.217 154.217s-68.883 154.217-154.217 154.217-154.217-68.883-154.217-154.217c0-12.337 2.057-24.16 4.627-35.984l-362.41-211.277c-27.759 25.702-64.257 41.639-104.867 41.639-85.334 0-154.217-68.883-154.217-154.217s68.883-154.217 154.217-154.217c40.611 0 77.108 15.936 104.867 41.639l366.008-213.847c-2.57-10.795-4.112-22.105-4.112-33.413 0-82.763 67.341-150.105 150.105-150.105s150.105 67.341 150.105 150.105-67.341 150.105-150.105 150.105z" />
<glyph unicode="&#xe94a;" glyph-name="car" d="M1004.41 401.095c0 18.697-6.237 37.395-12.467 56.092 0 6.233 0 6.234 0 12.467l-87.262 211.921c-31.163 87.262-74.794 168.293-180.755 168.293h-417.616c-112.197 6.233-149.598-81.027-180.76-162.059l-87.262-211.926c-12.465-18.698-18.699-43.626-18.699-68.56v-68.56c0-12.467 0-18.704 6.234-31.163 0-6.237-6.234-12.467-6.234-18.704v-193.222c0-31.163 24.932-49.858 49.863-49.858h105.963c31.163 0 49.863 24.925 49.863 49.858v99.729h567.202v-99.729c0-31.163 24.934-49.858 49.858-49.858h99.729c31.163 0 49.858 24.925 49.858 49.858v193.222c0 6.237 0 12.467-6.23 18.704 0 12.46 6.23 18.697 6.23 31.163v62.326h12.467zM194.108 662.876c31.163 93.496 62.326 124.665 118.431 124.665h411.383c56.092 0 87.262-31.163 118.43-124.665l62.326-124.665c-18.697 6.233-43.624 12.465-68.56 12.465h-648.234c-18.698 0-43.629-6.234-62.327-12.465l68.56 124.665zM243.978 313.831h-112.197c-18.698 0-37.397 18.697-37.397 37.392s18.698 37.4 37.397 37.4h112.197c18.698 0 37.397-18.704 37.397-37.4s-18.698-37.392-37.397-37.392zM649.13 320.064h-268.018c-12.465 0-24.931 12.467-24.931 24.934s12.465 24.934 24.931 24.934h268.018c12.467 0 24.925-12.467 24.925-24.934s-12.46-24.934-24.925-24.934zM885.98 313.831h-112.197c-18.697 0-37.4 18.697-37.4 37.392s18.704 37.4 37.4 37.4h112.197c18.704 0 37.392-18.704 37.392-37.4s-12.46-37.392-37.392-37.392z" />
<glyph unicode="&#xe94b;" glyph-name="transport" d="M795.029-64h95.406l-171.725 257.612c31.797 6.438 57.242 19.318 82.681 45.078 19.082 25.765 31.802 51.525 31.802 90.165v495.9c0 38.642-12.72 70.843-38.164 96.604-25.44 25.761-57.242 38.641-95.401 38.641h-375.255c-38.161 0-69.962-12.88-95.403-38.641s-38.162-57.962-38.162-96.604v-495.9c0-32.203 12.721-64.401 31.801-90.165 19.081-25.76 50.882-38.64 82.683-45.078l-171.727-257.612h95.404l19.081 25.76h534.261l12.72-25.76zM737.787 277.336c-12.72-12.88-25.44-19.322-44.522-19.322-19.078 0-31.802 6.442-44.522 19.322s-19.078 25.76-19.078 45.078c0 19.322 6.358 32.203 19.078 45.083s25.444 19.322 44.522 19.322c19.082 0 31.802-6.442 44.522-19.322s19.082-25.76 19.082-45.083c0-19.318-6.362-32.198-19.082-45.078zM273.491 811.875c0 19.321 6.36 32.201 19.081 45.081s25.441 19.321 44.522 19.321h356.173c19.082 0 31.802-6.441 44.522-19.321s19.082-25.761 19.082-45.081v-161.007c0-19.321-6.362-32.201-19.082-45.082s-25.44-19.321-44.522-19.321h-356.173c-19.081 0-31.801 6.441-44.522 19.321s-19.081 32.202-19.081 45.082v161.007zM286.211 277.336c-12.72 12.88-19.081 25.76-19.081 45.078 0 19.322 6.36 32.203 19.081 45.083s25.441 19.322 44.522 19.322c19.081 0 31.801-6.442 44.522-19.322s19.081-25.76 19.081-45.083c0-19.318-6.36-32.198-19.081-45.078s-25.441-19.322-44.522-19.322c-19.081 0-31.801 6.442-44.522 19.322zM298.932 45.484l44.522 64.405h337.092l44.522-64.405h-426.136z" />
<glyph unicode="&#xe94c;" glyph-name="walking" d="M331.629 674.911c-64 0-116.363-116.363-116.363-267.634 0-209.456 40.727-267.635 104.727-267.635s139.637 93.092 139.637 302.544c0 151.272-64 232.726-128 232.726zM337.465 128.001h-5.818c-40.728 0-75.637-29.090-75.637-69.818v-52.365c0-40.728 34.909-69.818 75.637-69.818h5.818c40.727 0 75.637 29.090 75.637 69.818v52.365c0 40.728-34.909 69.818-75.637 69.818zM692.369 960c-63.999 0-127.999-81.454-127.999-226.909 0-209.452 75.638-302.544 139.637-302.544s104.727 58.184 104.727 267.635c0 145.454-52.361 261.817-116.363 261.817zM698.159 413.090h-5.819c-40.724 0-75.632-29.090-75.632-69.818v-52.361c0-40.728 34.909-69.821 75.632-69.821h5.819c40.728 0 75.637 29.094 75.637 69.821v52.361c0 40.728-34.909 69.818-75.637 69.818z" />
</font>
</defs>
</svg>
