<svg width="25" height="25" viewBox="0 0 25 25" xmlns="http://www.w3.org/2000/svg" xmlns:xlink="http://www.w3.org/1999/xlink"><use xlink:href="#path0_fill" transform="translate(20.19 12.5)" fill="#D7D7D7"/><use xlink:href="#path1_fill" transform="translate(20.19 16.348)" fill="#D7D7D7"/><use xlink:href="#path2_fill" transform="translate(20.19 20.191)" fill="#D7D7D7"/><use xlink:href="#path3_fill" transform="translate(16.35 20.191)" fill="#D7D7D7"/><use xlink:href="#path4_fill" transform="translate(12.5 20.191)" fill="#D7D7D7"/><use xlink:href="#path5_fill" fill="#003A70"/><defs><path id="path0_fill" d="M0 0h1.922v1.922H0V0z"/><path id="path1_fill" d="M0 0h1.922v1.922H0V0z"/><path id="path2_fill" d="M0 0h1.922v1.922H0V0z"/><path id="path3_fill" d="M0 0h1.922v1.922H0V0z"/><path id="path4_fill" d="M0 0h1.922v1.922H0V0z"/><path id="path5_fill" d="M5.77 5.77h14.42v2.882L25 4.328 20.191 0v2.883H2.883V20.19H0L4.328 25l4.324-4.809H5.77V5.77z"/></defs></svg>