<svg width="28" height="21" viewBox="0 0 28 21" xmlns="http://www.w3.org/2000/svg" xmlns:xlink="http://www.w3.org/1999/xlink"><use xlink:href="#path0_fill" fill="#003A70"/><defs><path id="path0_fill" d="M27.174 7.718H24.13V.835a.838.838 0 0 0-.516-.773.827.827 0 0 0-.32-.062h-18.6a.827.827 0 0 0-.772.514.838.838 0 0 0-.064.321v6.883H.831a.828.828 0 0 0-.77.519.839.839 0 0 0-.061.32v6.7a.838.838 0 0 0 .512.776c.101.042.21.064.319.064h1.047v4a.843.843 0 0 0 .5.833.833.833 0 0 0 1.122-.492.843.843 0 0 0 .045-.34v-4.006H24.44v4.005a.843.843 0 0 0 .5.833.833.833 0 0 0 1.123-.492.845.845 0 0 0 .044-.34v-4.006h1.061a.827.827 0 0 0 .77-.519.839.839 0 0 0 .061-.32V8.557a.842.842 0 0 0-.831-.835l.005-.005zM5.54 1.675h16.9v6.043h-1.81a1.885 1.885 0 0 0-.372-2.127 1.873 1.873 0 0 0-1.327-.553H9.07a1.87 1.87 0 0 0-1.591.872 1.894 1.894 0 0 0-.117 1.818H5.54V1.675zm3.324 5.25a.223.223 0 0 1 .22-.221h9.86a.22.22 0 0 1 .22.222.222.222 0 0 1-.22.221h-9.86a.22.22 0 0 1-.22-.221zm17.474 7.492H1.667V9.393h24.671v5.024z"/></defs></svg>