<svg width="38" height="17" viewBox="0 0 38 17" xmlns="http://www.w3.org/2000/svg" xmlns:xlink="http://www.w3.org/1999/xlink"><g transform="translate(0 1)" fill="#999"><use xlink:href="#path0_fill"/><use xlink:href="#path1_fill"/></g><g transform="translate(25 1)" fill="#999"><use xlink:href="#path0_fill"/><use xlink:href="#path1_fill"/></g><g transform="translate(10.2 .103)" fill="#003A70"><use xlink:href="#path2_fill"/><use xlink:href="#path3_fill"/></g><defs><path id="path0_fill" d="M6.508 6.194a3.215 3.215 0 0 0 1.751-.535 3.111 3.111 0 0 0 1.154-1.395 3.034 3.034 0 0 0 .17-1.787A3.078 3.078 0 0 0 8.71.897a3.189 3.189 0 0 0-1.621-.84 3.23 3.23 0 0 0-1.826.181A3.152 3.152 0 0 0 3.847 1.38a3.05 3.05 0 0 0-.532 1.718c.005.824.344 1.613.942 2.194.599.58 1.408.905 2.25.903zm0-4.985c.38.004.751.117 1.066.327.315.21.56.505.703.85a1.868 1.868 0 0 1-.429 2.051c-.27.262-.614.44-.988.513a1.97 1.97 0 0 1-1.112-.11 1.921 1.921 0 0 1-.864-.693A1.86 1.86 0 0 1 4.56 3.1a1.864 1.864 0 0 1 .574-1.341c.18-.176.395-.315.631-.41a1.98 1.98 0 0 1 .744-.141z"/><path id="path1_fill" d="M9.567 6.959c2.116.66 3.276 2.12 3.432 4.37a.6.6 0 0 1-.155.431.627.627 0 0 1-.865.063.605.605 0 0 1-.22-.405c-.121-1.698-.838-3.642-5.251-3.642S1.37 9.735 1.24 11.44a.603.603 0 0 1-.197.398.63.63 0 0 1-.666.11.631.631 0 0 1-.338-.35.603.603 0 0 1-.038-.244c.171-2.238 1.33-3.73 3.432-4.373l1.347-.324a12.863 12.863 0 0 1 3.433 0l1.354.302z"/><path id="path2_fill" d="M8.809 8.722a4.234 4.234 0 0 0 2.37-.753 4.347 4.347 0 0 0 1.563-1.965 4.433 4.433 0 0 0 .229-2.516 4.384 4.384 0 0 0-1.181-2.224A4.262 4.262 0 0 0 9.595.081a4.216 4.216 0 0 0-2.47.254 4.31 4.31 0 0 0-1.918 1.607 4.416 4.416 0 0 0-.72 2.419A4.426 4.426 0 0 0 5.763 7.45a4.273 4.273 0 0 0 3.046 1.272zm0-7.02a2.581 2.581 0 0 1 1.444.46c.426.296.756.712.95 1.198.194.486.243 1.02.14 1.533a2.673 2.673 0 0 1-.72 1.355c-.366.37-.83.62-1.337.721a2.57 2.57 0 0 1-1.505-.153 2.623 2.623 0 0 1-1.17-.977 2.692 2.692 0 0 1-.44-1.473c0-.351.07-.699.204-1.023.133-.324.328-.618.573-.865a2.588 2.588 0 0 1 1.861-.776z"/><path id="path3_fill" d="M12.95 9.799c2.865.93 4.434 2.984 4.646 6.152a.866.866 0 0 1-.21.608.832.832 0 0 1-1.171.088.86.86 0 0 1-.297-.57c-.165-2.39-1.136-5.128-7.11-5.128-5.973 0-6.954 2.759-7.13 5.16a.862.862 0 0 1-.266.56.833.833 0 0 1-.57.228.84.84 0 0 1-.61-.273.869.869 0 0 1-.231-.636c.232-3.153 1.802-5.254 4.647-6.158l1.822-.457a16.745 16.745 0 0 1 4.647 0l1.832.426z"/></defs></svg>